<svg width="44" height="44" viewBox="0 0 44 44" fill="none" xmlns="http://www.w3.org/2000/svg">
<rect width="43.4128" height="43.4128" rx="5" fill="#452C82"/>
<path d="M29.0049 15.3739C28.9603 15.6035 28.7772 15.7841 28.5442 15.8035C25.4533 16.0619 23.3696 13.3038 22.6764 12.2221C22.5137 11.9682 22.5399 11.6443 22.7225 11.4043C23.0899 10.9219 23.8622 11.0259 24.1898 11.5362C24.729 12.376 25.4493 13.092 26.3046 13.6279C27.1234 14.0933 27.7613 14.3081 28.2268 14.4005C28.6494 14.4843 29.087 14.9511 29.0049 15.3739Z" fill="#F3A712"/>
<path d="M12.3784 31.5762C12.4197 31.4141 13.4701 29.6377 13.6127 29.5503C14.5707 29.0821 15.7139 29.2169 16.5367 29.895C19.1628 32.2444 13.8936 32.819 15.0811 35.0024C15.8331 36.3974 12.5359 35.7939 12.3703 34.2178C12.2623 33.1901 12.2245 32.181 12.3784 31.5762Z" fill="#F3A712"/>
<path d="M29.6394 11.3808C29.6525 11.3855 29.667 11.3793 29.6725 11.3665C29.9351 10.755 30.1579 10.1271 30.3394 9.48674C30.5082 8.90304 30.5927 8.29824 30.5905 7.69064C30.5905 7.66822 30.5898 7.64668 30.5885 7.62579C30.5759 7.42183 30.5402 7.21752 30.4671 7.02668C30.4396 6.94824 30.3994 6.8749 30.3479 6.80961C30.2944 6.73 30.23 6.65836 30.1564 6.5968C29.8457 6.33061 29.4236 6.23504 29.0285 6.34143C28.3007 6.48614 27.4921 7.06924 26.7387 7.67787C25.3598 8.85019 24.1215 10.1785 23.0486 11.6361C21.9866 13.1223 21.0997 14.7262 20.4055 16.4158C19.7642 17.9401 19.2211 19.5038 18.7797 21.0975C18.4818 22.1105 18.269 23.149 17.9923 24.1747L17.1411 27.2349C16.9751 27.8606 16.7155 27.7627 16.4941 27.1498C16.1756 26.191 16.0667 25.175 16.1749 24.1705C16.8985 19.7909 18.1753 15.4283 20.7588 11.5467C21.5717 10.3848 22.3974 9.30798 23.3253 8.25671C24.2277 7.12745 25.2785 6.12528 26.4493 5.27739C27.1703 4.77492 27.9925 4.43642 28.8583 4.28571C29.3703 4.21852 29.8909 4.26651 30.382 4.42616C30.8623 4.58319 31.2994 4.84985 31.6588 5.20504C31.8447 5.39122 32.0102 5.59667 32.1525 5.81793C32.2814 6.03551 32.3856 6.26677 32.4632 6.50742L32.5654 6.85643L32.6165 7.19692C32.6472 7.4183 32.6614 7.64165 32.659 7.86514C32.6433 8.68306 32.5159 9.49499 32.2802 10.2784C31.7302 12.0891 30.9491 13.8214 29.9564 15.4326C28.5008 17.8629 26.6962 20.0165 24.9341 22.136C23.5508 23.7789 22.2059 25.3963 20.7588 26.9498C20.4439 27.2903 20.1417 27.635 19.8054 27.967C19.362 28.3972 18.8757 28.7809 18.3541 29.1119C18.0851 29.2654 17.7859 29.3584 17.4773 29.3843C17.3711 29.3939 17.2643 29.3939 17.1581 29.3843C17.0262 29.3843 17.0559 29.2013 17.2007 28.8991C17.4081 28.4437 17.6696 28.015 17.9795 27.6222C18.2775 27.252 18.5371 26.8519 18.852 26.4986L19.7714 25.4048L21.6228 23.2214C22.8528 21.7232 24.0786 20.1995 25.2278 18.629C26.079 17.4713 26.8792 16.2668 27.6453 15.0708C28.4117 13.9092 29.0682 12.6787 29.6062 11.3953C29.6116 11.3824 29.6262 11.376 29.6394 11.3808Z" fill="#F3A712"/>
<path d="M11.2267 35.0705C11.2399 35.0705 11.2506 35.0598 11.2505 35.0467C11.2501 35.0098 11.2482 34.9683 11.2375 34.9338C11.2252 34.8944 11.2038 34.855 11.2038 34.8137V34.764L11.174 34.5342L11.1272 34.066C11.1016 33.7553 11.0803 33.4404 11.0718 33.1254C11.051 32.4681 11.0866 31.8103 11.1782 31.1591C11.2228 30.6324 11.3432 30.1149 11.5357 29.6226C11.7601 29.1424 12.0735 28.7092 12.4593 28.3458C12.6553 28.1502 12.8739 27.9787 13.1105 27.835C13.3253 27.7218 13.5471 27.6223 13.7745 27.5371C14.6963 27.1666 15.7256 27.1666 16.6474 27.5371C17.4298 27.8524 18.1009 28.3931 18.5754 29.0906C18.8716 29.5126 19.0601 30.0006 19.1245 30.5121C19.1245 30.6356 19.1245 30.7633 19.1245 30.8867C19.1152 31.008 19.0995 31.1288 19.0777 31.2485C19.0445 31.4853 18.9816 31.7169 18.8904 31.938C18.784 32.2146 18.6265 32.138 18.3924 31.8997C18.2732 31.7805 18.1456 31.623 17.9881 31.474C17.8299 31.321 17.6807 31.159 17.5412 30.9888C17.3825 30.7438 17.2046 30.5119 17.0092 30.2951C16.8292 30.1396 16.6269 30.0119 16.409 29.9163C16.2249 29.8569 16.036 29.8133 15.8445 29.786C15.7927 29.7787 15.7401 29.7803 15.6877 29.7806C15.6296 29.7809 15.5734 29.7635 15.5173 29.7485C15.4859 29.74 15.4539 29.7335 15.4216 29.729C15.2917 29.6993 15.159 29.6836 15.0258 29.6822C14.8545 29.6701 14.6785 29.7048 14.5241 29.7799C14.5211 29.7813 14.5181 29.7828 14.5151 29.7843C14.4427 29.8226 14.3235 29.8652 14.2852 29.895C14.2308 29.9283 14.1807 29.9684 14.1363 30.0142C13.9172 30.2777 13.7485 30.5792 13.6383 30.9037C13.294 31.9019 13.1396 32.9557 13.1829 34.0107V34.53V34.8492C13.1829 35.0322 13.2127 35.2237 13.2425 35.4195L13.3063 35.8111L13.3442 36.0175C13.3445 36.0189 13.3446 36.0203 13.3446 36.0217V36.0452L-nan -nanL13.3446 36.0452L13.3744 36.0154L13.4297 35.9515L14.1277 35.1939L14.4427 34.8364L14.8896 34.3555C15.2162 33.9911 15.5783 33.6603 15.9707 33.368C16.1417 33.2384 16.324 33.1245 16.5155 33.0275C16.8252 32.8554 17.1886 32.8068 17.5327 32.8913C17.7182 32.9492 17.8564 33.0976 17.9052 33.2786C17.932 33.3782 17.9354 33.4831 17.937 33.5862C17.939 33.7132 17.9061 33.8388 17.8461 33.9508C17.8364 33.969 17.8263 33.987 17.8157 34.0047C17.7328 34.1442 17.64 34.2804 17.5265 34.3963C17.4928 34.4307 17.4564 34.4626 17.4178 34.4917C16.921 34.8299 16.4552 35.2117 16.026 35.6323L15.6429 35.9983L15.545 36.092C15.511 36.1218 15.494 36.1473 15.4003 36.2282L14.9747 36.6538C14.7066 36.9389 14.4384 37.2071 14.1746 37.505L13.3957 38.4754C13.0062 38.9322 12.2621 38.7542 12.1196 38.171C12.0658 37.9504 12.0118 37.7299 11.9577 37.5097C11.9375 37.4274 11.9074 37.3479 11.8699 37.2719C11.5327 36.5877 11.3075 35.8536 11.2032 35.0975C11.2012 35.0832 11.2123 35.0705 11.2267 35.0705Z" fill="#F3A712"/>
<path d="M26.29 14.3918C26.2961 14.3892 26.2966 14.3809 26.2909 14.3775C25.8426 14.1118 25.4198 13.8053 25.0277 13.462C24.8915 13.3301 24.7298 13.2364 24.6021 13.1002C24.1682 12.6034 23.8097 12.0456 23.5381 11.4446C23.4785 11.3126 23.4274 11.1807 23.3636 11.053C23.2904 10.9317 23.2332 10.8016 23.1933 10.6657C23.1366 10.4926 23.0897 10.3164 23.0529 10.1379C23.0338 9.95468 23.0424 9.76959 23.0784 9.58889C23.1039 9.47397 23.3125 9.46972 23.5551 9.52079C23.597 9.52534 23.6384 9.53222 23.6793 9.54135C24.0483 9.62382 24.3 9.94811 24.4869 10.2769C24.594 10.4654 24.69 10.6601 24.7743 10.8599C24.8958 11.1478 25.0014 11.4487 25.2064 11.6845C25.2625 11.749 25.3223 11.8102 25.3856 11.8678C25.5628 12.0291 25.7588 12.1692 25.9482 12.3161C26.1746 12.4917 26.4132 12.6513 26.6621 12.7938C26.8826 12.9204 27.1132 13.0286 27.3516 13.1172C27.7124 13.253 28.0908 13.3361 28.4752 13.3641C28.7672 13.3624 29.0562 13.3046 29.3264 13.1939C29.3835 13.1727 29.4445 13.164 29.5052 13.1683C29.7223 13.1683 29.8202 13.2747 29.9606 13.5939C29.9904 13.6663 30.0287 13.7386 30.0542 13.811C30.1526 14.0448 30.091 14.3154 29.901 14.4835C29.6289 14.7596 29.2693 14.9326 28.8838 14.9729C28.5177 15.0368 28.1433 15.0368 27.7772 14.9729C27.2588 14.8492 26.7587 14.6587 26.2894 14.4062C26.2835 14.4031 26.2839 14.3945 26.29 14.3918Z" fill="#F3A712"/>
</svg>
