<svg width="352" height="115" viewBox="0 0 352 115" fill="none" xmlns="http://www.w3.org/2000/svg">
<path d="M310.989 74.979C311.387 74.6762 311.82 74.4214 312.278 74.2199C312.717 74.0115 313.177 73.8519 313.651 73.7441C314.597 73.5165 315.58 73.4813 316.54 73.6407C316.882 73.7241 317.231 73.7785 317.562 73.8762C317.892 73.974 318.216 74.0923 318.532 74.2304C319.6 74.7331 320.59 75.3888 321.47 76.1768C321.907 76.5725 322.339 76.9376 322.736 77.378L323.341 77.9822L323.909 78.6199C324.244 78.9998 324.583 79.3733 324.899 79.7595C325.215 80.1456 325.558 80.5176 325.869 80.9053C326.264 81.4053 326.674 81.9006 327.061 82.4086C327.444 82.9255 327.763 83.4866 328.012 84.0798C328.196 84.4384 328.099 84.4372 327.779 84.2558C327.621 84.1618 327.385 84.0444 327.102 83.894C326.962 83.8125 326.829 83.7208 326.704 83.6197L326.496 83.4558C326.442 83.3874 326.38 83.327 326.325 83.2537C324.713 81.2792 322.995 79.3944 321.178 77.608C320.082 76.5622 318.781 75.7565 317.356 75.2424C316.611 74.9608 315.818 74.8285 315.022 74.8531L314.432 74.9181L313.841 75.0428L313.258 75.2288L312.71 75.4734C311.815 75.9118 311.066 76.6007 310.555 77.4564C309.794 78.8541 309.264 80.3659 308.987 81.933C308.721 83.163 308.556 84.4039 308.18 85.6583C308.091 85.9329 308.018 86.2077 307.908 86.4836C307.407 87.4623 307.064 87.6949 306.681 87.6675C306.601 87.6726 306.521 87.6732 306.441 87.6692C306.255 87.6427 306.232 87.1152 306.475 86.4863C307.15 84.5424 307.422 82.2613 308.117 79.8937C308.344 78.9908 308.67 78.1154 309.087 77.2829C309.551 76.391 310.191 75.6023 310.969 74.9642L310.989 74.979Z" fill="#231F20"/>
<path d="M318.726 75.8113C317.68 75.0978 316.451 74.6988 315.185 74.6617C314.877 74.7013 314.564 74.6941 314.251 74.7514L313.78 74.8534L313.544 74.902L313.326 74.9718C313.038 75.0565 312.762 75.1736 312.501 75.3208C312.371 75.3997 312.236 75.4641 312.106 75.5431L311.756 75.8208C311.067 76.4548 310.52 77.2275 310.152 78.0881C309.383 79.8198 308.848 81.6461 308.562 83.5189L308.045 86.5095L307.762 87.986L307.494 89.4949C307.205 91.3621 306.641 93.1762 305.82 94.8779C305.253 95.9536 304.561 96.958 303.757 97.8697C303.352 98.3171 302.901 98.7209 302.413 99.0747C302.169 99.2489 301.931 99.4265 301.685 99.5959L300.915 100.05C300.272 100.416 300.246 100.184 300.519 99.5616C300.645 99.2376 300.876 98.8536 301.085 98.3532C301.2 98.108 301.321 97.8499 301.458 97.5921C301.531 97.4606 301.595 97.324 301.648 97.1834C301.734 97.0652 301.814 96.9324 301.905 96.8126C302.516 95.9534 303.022 95.0247 303.414 94.0459C303.806 93.0799 304.139 92.0907 304.411 91.084C304.658 90.0122 304.847 88.928 304.979 87.836C305.013 87.5737 305.086 87.149 305.138 86.9078L305.316 86.0749L305.677 84.3544C305.977 82.9636 306.203 81.5106 306.548 80.0091C306.862 78.4419 307.453 76.9431 308.292 75.5831C308.548 75.1966 308.834 74.8314 309.148 74.4912L309.638 73.9816L310.197 73.5356C310.572 73.2457 310.976 72.9948 311.403 72.7868C311.829 72.5957 312.264 72.4279 312.709 72.2843C314.468 71.7915 316.336 71.8508 318.061 72.4541C319.07 72.8277 320.021 73.3442 320.884 73.988C321.708 74.6136 322.477 75.3102 323.18 76.0697C324.211 77.1938 325.153 78.396 325.998 79.6655C326.21 79.9778 326.425 80.2836 326.628 80.5667C326.831 80.8499 327.038 81.1476 327.268 81.4326C327.499 81.7177 327.713 81.9865 327.951 82.2475C328.181 82.514 328.425 82.7684 328.682 83.0097C330.204 84.4992 332.06 85.6021 334.097 86.226C334.311 86.296 334.529 86.3532 334.751 86.3971C334.971 86.4499 335.186 86.5043 335.41 86.5507C335.996 86.7151 336.568 86.9262 337.12 87.1819C337.447 87.3596 337.718 87.6256 337.9 87.9496C337.991 88.084 338.073 88.224 338.147 88.3687C338.218 88.5921 338.075 88.7822 337.71 88.9629C337.176 89.2145 336.59 89.3374 336 89.3216C335.432 89.3447 334.863 89.3055 334.304 89.2049L333.469 89.0056C333.193 88.9279 332.922 88.8325 332.644 88.7339C331.544 88.3478 330.493 87.8316 329.515 87.1962C327.572 85.905 325.883 84.2674 324.532 82.3651L323.151 80.4353C322.71 79.8267 322.235 79.2451 321.782 78.6782C320.892 77.5903 319.849 76.6379 318.685 75.8511L318.726 75.8113Z" fill="#231F20"/>
<path d="M325.599 91.1059C325.363 91.5307 325.098 91.9388 324.806 92.3276C324.661 92.5243 324.505 92.7134 324.339 92.894C324.192 93.0839 324.034 93.265 323.865 93.4361C323.511 93.7809 323.131 94.0974 322.728 94.3825C322.526 94.5218 322.329 94.6757 322.116 94.7971L321.47 95.1371L321.144 95.3055C321.027 95.3427 320.916 95.3784 320.799 95.4156L320.134 95.6973C319.673 95.8446 319.164 95.9268 318.685 96.0367C317.687 96.1515 316.675 96.0807 315.702 95.8278C314.365 95.4932 313.104 94.9034 311.99 94.0908C310.3 92.7034 308.765 91.1372 307.411 89.4197C306.74 88.6066 306.097 87.8325 305.41 87.0563C304.652 86.1744 304.116 85.3663 303.45 84.5887C302.329 83.2296 301.005 82.0512 299.526 81.0949C297.619 79.9181 295.515 79.0975 293.315 78.673C292.611 78.5125 292.675 78.3424 293.327 78.0379C293.492 77.9852 293.686 77.891 293.916 77.8068C294.172 77.7122 294.436 77.6406 294.704 77.5928C295.365 77.4116 296.057 77.3731 296.734 77.48C299.361 77.9539 301.795 79.1764 303.744 81.0003C304.687 81.8658 305.561 82.8036 306.358 83.8052L306.922 84.5186L307.182 84.8637L307.412 85.1649L308 85.8818L308.576 86.613C309.457 87.7743 310.415 88.8756 311.442 89.9096C312.404 90.883 313.479 91.7364 314.646 92.4511C316.075 93.4073 317.873 93.6277 319.491 93.045L319.977 92.8899L320.438 92.6572C320.751 92.4989 321.05 92.3122 321.33 92.0994C321.47 91.9967 321.602 91.883 321.724 91.7594C321.861 91.6478 321.988 91.5248 322.105 91.3919C323.292 89.9847 324.075 88.2809 324.368 86.463C324.643 85.0156 324.799 83.5483 324.835 82.0755C324.854 81.347 324.858 80.5538 324.903 79.7741C324.949 78.9943 325.015 78.2132 325.12 77.4358C325.373 74.9949 326.033 72.6136 327.072 70.3909C327.306 69.8875 327.577 69.4021 327.882 68.9389C329.227 67.2841 330.031 67.1186 330.73 67.2968C330.888 67.3259 331.044 67.3694 331.194 67.4269C331.401 67.5376 331.407 67.7924 331.299 68.1586C331.247 68.3466 331.157 68.5518 331.06 68.8021C330.964 69.0524 330.815 69.2923 330.668 69.5855C330.423 69.9902 330.272 70.4559 330.031 70.8591L329.701 71.4998L329.399 72.1312C329.026 73.0143 328.711 73.921 328.457 74.8455C328.197 75.8001 328.001 76.7709 327.87 77.7514C327.731 78.7519 327.652 79.7599 327.635 80.7698L327.613 81.9916C327.604 82.4172 327.586 82.8458 327.563 83.276C327.505 84.1346 327.434 85.0027 327.291 85.8779C327.053 87.7091 326.501 89.4855 325.66 91.1293L325.599 91.1059Z" fill="#231F20"/>
<path d="M333.211 80.7023L332.814 79.2237C332.746 79.0456 332.688 78.864 332.64 78.6797C332.528 78.0092 332.44 77.3309 332.347 76.6703C332.317 76.3749 332.241 76.0885 332.192 75.7993C332.088 75.4369 332.046 75.0599 332.066 74.6836C332.075 74.5628 332.243 74.5521 332.431 74.6206C332.643 74.6811 332.821 74.8286 332.919 75.0266C333.175 75.7086 333.381 76.4086 333.534 77.1208C333.653 77.5557 333.818 77.9767 334.026 78.3766C334.181 78.8622 334.336 79.3479 334.525 79.8227L334.813 80.726C334.961 81.1874 335.108 81.6488 335.292 82.0929C335.366 82.2664 335.453 82.4336 335.554 82.5928L335.702 82.8397C335.735 82.9272 335.764 83.0164 335.787 83.1069C335.817 83.1829 335.842 83.2608 335.862 83.34C335.921 83.6422 335.834 83.7717 335.511 83.9175C335.433 83.9423 335.363 83.9914 335.282 84.0226C335.043 84.1158 334.772 84.0627 334.586 83.8864C334.319 83.6668 334.1 83.3938 333.945 83.085C333.813 82.7875 333.698 82.483 333.6 82.1729L333.14 80.7305L333.211 80.7023Z" fill="#231F20"/>
<path d="M331.095 79.5209C331.09 79.7421 331.103 79.9634 331.134 80.1825C331.158 80.2553 331.181 80.3282 331.206 80.4059C331.257 80.6999 331.317 81.0232 331.384 81.3336C331.409 81.4696 331.451 81.6019 331.51 81.727C331.617 81.8656 331.672 82.0375 331.665 82.2126C331.641 82.3381 330.757 82.5025 330.642 82.3624C330.457 82.072 330.341 81.7428 330.303 81.4004C330.243 81.1921 330.153 80.9937 330.035 80.8117C329.941 80.5762 329.864 80.3344 329.804 80.0881C329.757 79.9424 329.709 79.7918 329.703 79.6386C329.678 79.4138 329.635 79.1912 329.576 78.9727C329.502 78.8132 329.41 78.6632 329.3 78.5258C329.277 78.4947 329.256 78.4621 329.237 78.4283C329.193 78.2923 329.265 78.2319 329.61 78.1219L329.877 78.0366C330.073 77.9613 330.291 77.9647 330.485 78.046C330.74 78.2501 330.919 78.534 330.993 78.8521C331.062 79.0591 331.105 79.2734 331.122 79.4906L331.095 79.5209Z" fill="#231F20"/>
<path d="M298.532 87.4862L298.885 88.9788C298.941 89.1536 298.997 89.3285 299.054 89.5082C299.153 90.1721 299.237 90.8358 299.354 91.4886C299.399 91.7794 299.482 92.0578 299.551 92.3408C299.67 92.6951 299.738 93.0646 299.752 93.4381C299.747 93.5574 299.584 93.5827 299.397 93.5513C299.183 93.5045 298.998 93.3692 298.888 93.1788C298.579 92.5049 298.339 91.8019 298.17 91.0801C298.043 90.6408 297.878 90.2136 297.676 89.8034C297.521 89.3177 297.366 88.8321 297.211 88.3464L296.925 87.4479C296.779 86.9914 296.633 86.5349 296.487 86.0784C296.415 85.9052 296.331 85.7372 296.236 85.5754L296.087 85.3284C296.054 85.241 296.026 85.1518 296.002 85.0613C295.973 84.9852 295.948 84.9073 295.928 84.8282C295.872 84.5195 295.961 84.3949 296.282 84.2603C296.364 84.234 296.442 84.2092 296.52 84.1844C296.747 84.0927 297.007 84.1331 297.195 84.2897C297.458 84.5125 297.673 84.7862 297.827 85.0942C297.96 85.3965 298.077 85.7058 298.176 86.0209C298.331 86.5066 298.452 87.0031 298.598 87.4918L298.532 87.4862Z" fill="#231F20"/>
<path d="M300.797 88.8339C300.766 88.5291 300.72 88.226 300.657 87.926C300.623 87.8192 300.589 87.7123 300.555 87.6055C300.471 87.2094 300.394 86.8005 300.29 86.4058C300.241 86.2316 300.174 86.0628 300.091 85.9018C299.961 85.7036 299.888 85.4735 299.879 85.2365C299.892 85.077 300.787 84.9466 300.925 85.1595C301.154 85.5575 301.314 85.9912 301.399 86.4425C301.476 86.7213 301.587 86.9896 301.729 87.2416C301.825 87.5427 301.924 87.8535 302.023 88.1643C302.084 88.3537 302.144 88.5431 302.204 88.7325C302.297 89.0239 302.321 89.3322 302.416 89.6123C302.507 89.8303 302.613 90.0413 302.735 90.2436C302.75 90.2921 302.795 90.3314 302.811 90.38C302.868 90.5597 302.798 90.641 302.454 90.7559C302.378 90.7855 302.3 90.8104 302.221 90.8303C302.019 90.9183 301.787 90.9002 301.601 90.7821C301.309 90.4824 301.097 90.1136 300.986 89.7102C300.888 89.4284 300.812 89.1396 300.758 88.8463L300.797 88.8339Z" fill="#231F20"/>
<path d="M319.405 84.4941C319.316 84.0302 319.225 83.5615 319.125 83.0959C319.064 82.9371 319.012 82.7749 318.97 82.6102C318.876 81.998 318.787 81.3842 318.659 80.7828C318.594 80.5186 318.511 80.259 318.411 80.0057C318.251 79.6922 318.156 79.3492 318.132 78.9977C318.134 78.8849 318.371 78.825 318.618 78.8427C318.864 78.8603 319.178 78.9208 319.238 79.1102C319.566 79.7373 319.799 80.4097 319.929 81.1053C320.034 81.527 320.181 81.9372 320.368 82.3298C320.514 82.7863 320.625 83.2537 320.753 83.7212L320.979 84.5802C321.116 85.0076 321.203 85.4505 321.387 85.8575C321.494 86.1926 321.671 86.4948 321.797 86.8237C321.835 86.8927 321.859 86.9686 321.868 87.0471C321.895 87.2918 321.743 87.5205 321.507 87.5906C321.444 87.6108 321.38 87.6309 321.322 87.6495C321.112 87.6924 320.894 87.6327 320.736 87.4889L320.517 87.3233C320.457 87.2699 320.404 87.2097 320.358 87.1439C320.258 87.0152 320.163 86.885 320.078 86.7518C319.986 86.6217 319.903 86.4855 319.83 86.3439L319.687 85.8971C319.544 85.4503 319.459 84.98 319.339 84.5206L319.405 84.4941Z" fill="#231F20"/>
<path d="M316.742 85.5048L316.262 83.5172C316.186 83.2792 316.107 83.0315 316.034 82.8032C315.829 81.9429 315.686 81.0575 315.471 80.2003C315.374 79.8197 315.254 79.4451 315.113 79.0784C314.898 78.6223 314.752 78.1369 314.68 77.638C314.666 77.4766 314.921 77.4057 315.219 77.4659C315.525 77.4776 315.805 77.6376 315.971 77.8947C316.406 78.8208 316.736 79.7924 316.955 80.7916C317.074 81.4009 317.375 81.9739 317.558 82.5792L318.137 84.5778L318.526 85.7968L318.82 86.7195C318.92 87.0303 319.017 87.3363 319.115 87.6423C319.27 88.1279 319.521 88.5455 319.723 88.9947C319.768 89.0941 319.802 89.1984 319.823 89.3055C319.906 89.7016 319.832 89.8377 319.591 90.0377C319.536 90.0797 319.478 90.1178 319.418 90.1516C319.227 90.2556 318.983 90.1622 318.759 89.9288C318.434 89.5861 318.163 89.1961 317.956 88.7722C317.735 88.3663 317.536 87.943 317.353 87.5198C317.226 87.2039 317.123 86.8793 317.043 86.5485L316.762 85.5679L316.742 85.5048Z" fill="#231F20"/>
<path d="M313.207 85.1775L312.98 84.1154C312.94 83.9891 312.901 83.8677 312.861 83.7414C312.778 83.2809 312.705 82.8172 312.598 82.3644C312.553 82.1651 312.491 81.9701 312.412 81.7816C312.282 81.5512 312.201 81.2967 312.173 81.0337C312.172 80.8628 312.955 80.7841 313.101 81.0584C313.341 81.5406 313.506 82.0565 313.59 82.5883C313.688 82.903 313.812 83.2088 313.962 83.5023C314.07 83.8423 314.18 84.1871 314.292 84.5368L314.495 85.173C314.581 85.5021 314.685 85.8263 314.805 86.1443C314.93 86.376 315.074 86.5968 315.235 86.8044C315.252 86.8578 315.313 86.8973 315.34 86.9476C315.437 87.1359 315.377 87.2302 315.06 87.3955C314.982 87.4203 314.914 87.4742 314.839 87.5087C314.637 87.6476 314.369 87.6455 314.169 87.5034C313.83 87.1493 313.588 86.7144 313.466 86.2401C313.356 85.8953 313.246 85.5505 313.17 85.1948L313.207 85.1775Z" fill="#231F20"/>
<path d="M336.448 22.372C336.448 22.372 339.138 23.1833 339.491 24.6622C339.823 26.0435 337.31 26.6803 337.31 26.6803C337.31 26.6803 341.672 27.1527 341.729 25.4787C341.786 23.8047 340.202 22.1461 339.06 22.2282C337.917 22.3104 336.448 22.372 336.448 22.372Z" fill="#231F20"/>
<path d="M336.905 23.2963C335.995 23.1472 335.065 23.1786 334.168 23.3888C333.319 23.5806 332.531 23.9756 331.872 24.539L331.717 24.693L331.649 24.7701C331.649 24.7701 331.649 24.7957 331.649 24.8112C331.608 24.8814 331.573 24.9554 331.545 25.032C331.469 25.2915 331.41 25.5556 331.369 25.8227C331.185 27.0728 331.158 28.3402 331.286 29.597C331.403 30.9436 331.608 32.2815 331.898 33.6022C332.159 34.7826 332.507 35.9427 332.937 37.0735C333.207 37.7924 333.529 38.4959 333.836 39.1891L334.064 39.7026L334.246 40.2777C334.355 40.6423 334.469 41.0017 334.594 41.3561C334.739 41.7925 334.438 41.9774 333.82 41.8695C333.436 41.785 333.068 41.6412 332.729 41.4433C332.522 41.33 332.325 41.1976 332.143 41.048C332.044 40.9709 331.966 40.8836 331.867 40.8066C331.797 40.7077 331.733 40.6048 331.675 40.4985C330.903 39.0045 330.265 37.4459 329.769 35.8411C329.284 34.2295 328.971 32.5721 328.834 30.8961C328.751 29.8691 328.627 28.8421 328.564 27.7894C328.533 27.2404 328.533 26.6901 328.564 26.1411C328.613 25.5331 328.743 24.9341 328.949 24.3593C329.092 23.9911 329.288 23.6452 329.53 23.3323L329.743 23.0807L329.93 22.9061C330.051 22.7899 330.179 22.6818 330.315 22.5826C330.828 22.184 331.394 21.8574 331.997 21.6121C333.145 21.1597 334.366 20.9162 335.601 20.8932C337.102 20.8394 338.594 21.1479 339.948 21.7918C341.247 22.3684 342.205 23.5051 342.545 24.8728C342.573 25.0253 342.589 25.1799 342.591 25.3349C342.591 25.489 342.56 25.643 342.55 25.7971C342.539 25.9511 342.43 26.0846 342.363 26.2233L342.093 26.5981L341.75 26.9165C341.629 27.012 341.5 27.0978 341.366 27.1732C341.143 27.3004 340.91 27.4102 340.67 27.5019C339.858 27.7865 339.011 27.9592 338.151 28.0154C337.736 28.0667 337.331 28.0513 336.915 28.0667C336.5 28.0821 336.089 28.0667 335.684 28.0102C335.279 27.9538 334.973 27.9692 334.646 27.9024C334.318 27.8357 334.043 27.7843 333.82 27.7227C333.637 27.6608 333.462 27.5763 333.301 27.4711C333.067 27.3266 332.897 27.1014 332.823 26.8395C332.779 26.7331 332.744 26.6231 332.719 26.5108C332.677 26.1822 333.275 25.9973 334.199 25.9973C335.536 26.1129 336.881 26.1129 338.219 25.9973C338.81 25.9479 339.392 25.8184 339.948 25.6122C340.062 25.5609 340.156 25.5044 340.26 25.4582C340.363 25.4119 340.327 25.4119 340.332 25.4068C340.286 25.4068 340.332 25.4428 340.332 25.4068C340.317 25.3749 340.3 25.3441 340.28 25.3144C340.247 25.2577 340.211 25.2028 340.171 25.1501C340.078 25.0474 340.015 24.9241 339.922 24.8163C339.712 24.5662 339.461 24.3527 339.179 24.1847C338.492 23.739 337.713 23.4481 336.9 23.3323L336.905 23.2963Z" fill="#231F20"/>
<path d="M335.44 6.14037C335.503 5.86821 335.565 5.60119 335.638 5.32904L335.71 5.04662C335.73 4.92513 335.758 4.80506 335.793 4.68717L336.006 3.97341C336.131 3.49072 336.339 3.06452 336.495 2.61777L336.811 2.05806L336.967 1.78077L337.138 1.55997C337.492 1.02993 337.994 0.612577 338.582 0.358383C338.861 0.232677 339.16 0.157868 339.465 0.137579C339.64 0.12725 339.816 0.148121 339.984 0.199199C340.131 0.248681 340.273 0.314123 340.405 0.394328C340.75 0.621264 341.046 0.912567 341.277 1.25187C341.565 1.70032 341.769 2.19593 341.88 2.71534C342.004 3.27193 342.089 3.83644 342.134 4.40475C342.134 4.69744 342.176 4.99013 342.186 5.28283C342.197 5.57552 342.186 5.90416 342.186 6.03253C342.186 6.73089 342.186 7.42411 342.129 8.11733C342.056 9.49351 341.953 10.8594 341.76 12.2253C341.62 13.432 341.475 14.6439 341.335 15.8198C341.215 17.3885 340.819 18.9246 340.166 20.3591C339.932 20.8059 339.647 20.6261 339.429 20.1486C339.112 19.4874 338.949 18.7646 338.951 18.033C338.977 17.6581 338.951 17.2781 339.003 16.9033L339.091 15.7787L339.237 13.5091C339.283 12.7542 339.33 11.9686 339.372 11.2343C339.413 10.5 339.522 9.69377 339.595 8.95433C339.684 8.03249 339.693 7.10477 339.621 6.18145L339.616 5.87335V5.64227L339.553 5.15959C339.523 4.94824 339.449 4.7454 339.335 4.56393C339.281 4.47715 339.174 4.43716 339.076 4.46636C338.992 4.49506 338.916 4.54456 338.857 4.61014C338.602 4.92472 338.411 5.28587 338.297 5.67308C338.267 5.74353 338.241 5.81552 338.219 5.88875L338.078 6.33036C337.99 6.63333 337.897 6.93115 337.819 7.23925C337.647 7.85031 337.512 8.47678 337.398 9.10325C337.033 11.0048 336.813 12.9306 336.739 14.8647C336.725 16.3389 336.828 17.812 337.045 19.2705C337.087 19.5889 337.159 19.8918 337.196 20.2102C337.233 20.6345 337.206 21.0618 337.118 21.4785C337.032 21.7337 336.878 21.9609 336.671 22.1358C336.588 22.2203 336.5 22.2992 336.406 22.372C336.256 22.4696 336.089 22.408 335.887 22.2128C335.578 21.9443 335.336 21.6086 335.181 21.2321C334.916 20.5626 334.741 19.8617 334.661 19.1473C334.557 18.4386 334.474 17.7146 334.433 16.9957C334.353 15.5414 334.367 14.0836 334.474 12.631C334.554 11.5492 334.673 10.4674 334.833 9.38567C334.916 8.84136 335.009 8.30219 335.108 7.76302C335.207 7.22385 335.29 6.6744 335.399 6.1301L335.44 6.14037Z" fill="#231F20"/>
<path d="M348.787 8.99542C348.917 8.56409 349.031 8.12761 349.13 7.70141C349.228 7.27521 349.342 6.86441 349.41 6.45874V6.30983V6.2174C349.412 6.19349 349.412 6.16942 349.41 6.14551C349.416 6.09431 349.416 6.04266 349.41 5.99146C349.415 5.8707 349.385 5.75105 349.322 5.64742C349.282 5.56495 349.186 5.52517 349.098 5.55499C349.029 5.601 348.963 5.65251 348.901 5.70904C348.842 5.75495 348.788 5.80655 348.74 5.86309C348.705 5.89582 348.674 5.93195 348.647 5.97092L348.615 6.00687L348.564 6.0993L348.449 6.28929C348.153 6.80279 347.888 7.31629 347.587 7.86573C347.006 8.9338 346.471 10.0481 345.982 11.1829C345.551 12.2099 345.224 13.2369 344.871 14.2639C344.658 14.9263 344.476 15.599 344.279 16.2614L343.978 17.2473C343.89 17.5657 343.703 17.8789 343.604 18.1665C343.536 18.3411 343.438 18.3565 343.303 18.3924C343.168 18.4284 342.976 18.3565 342.783 18.1305C342.552 17.8513 342.363 17.5399 342.223 17.2063C342.075 16.8164 342.031 16.3958 342.093 15.9841C342.207 15.2344 342.352 14.5001 342.519 13.7761C342.666 13.0481 342.874 12.3336 343.142 11.6399C343.665 10.2413 344.293 8.88359 345.022 7.57817C345.245 7.18791 345.458 6.78225 345.666 6.37659L346.362 5.15446L346.606 4.84636C346.699 4.69745 346.787 4.54853 346.896 4.39448C347.104 4.08639 347.322 3.79883 347.54 3.52154C347.923 3.02527 348.435 2.64032 349.021 2.40725C349.331 2.29669 349.671 2.29669 349.981 2.40725C350.132 2.48427 350.282 2.55616 350.433 2.63832L350.838 2.92074C351.328 3.42486 351.662 4.05758 351.799 4.74366C351.881 5.1148 351.923 5.49349 351.924 5.87336C351.938 6.04422 351.938 6.21599 351.924 6.38685C351.924 6.5255 351.924 6.66928 351.892 6.79765C351.841 7.31741 351.749 7.83245 351.617 8.33815C351.289 9.54584 350.881 10.7311 350.397 11.8864C349.696 13.622 348.839 15.2806 348.029 16.9238C347.39 18.2024 346.829 19.4913 346.159 20.7545C346.008 21.0318 345.873 21.3142 345.702 21.5864C345.504 21.9674 345.222 22.2992 344.876 22.5569C344.623 22.6785 344.335 22.7094 344.061 22.6442C343.94 22.6297 343.82 22.6057 343.703 22.5723C343.531 22.5056 343.459 22.3361 343.443 22.0588C343.412 21.7183 343.481 21.3761 343.64 21.0729L345.24 17.7146C345.759 16.5644 346.278 15.3936 346.798 14.2177C347.554 12.499 348.193 10.732 348.709 8.92867L348.787 8.99542Z" fill="#231F20"/>
<path d="M346.149 32.5752C345.115 33.8753 343.978 35.0911 342.747 36.2108C342.311 36.6508 341.843 37.0576 341.345 37.4278C340.872 37.7709 340.362 38.0603 339.823 38.2905C339.522 38.4193 339.207 38.5124 338.883 38.5678C338.5 38.6383 338.104 38.6172 337.73 38.5061L337.434 38.4034C337.346 38.3572 337.258 38.3007 337.175 38.2494C337.001 38.1413 336.847 38.0061 336.718 37.8489C336.59 37.692 336.484 37.5194 336.401 37.3354C336.336 37.1683 336.284 36.9967 336.245 36.8219C336.154 36.2071 336.224 35.5795 336.448 34.999C336.771 34.0985 337.218 33.2466 337.777 32.4674C338.436 31.4808 339.281 30.6284 340.265 29.9564C340.576 29.751 340.732 30.0026 340.727 30.434C340.71 30.9866 340.529 31.5222 340.208 31.9745C340.031 32.1901 339.886 32.4212 339.725 32.642C339.642 32.755 339.569 32.8679 339.501 32.9809L339.262 33.3044C338.974 33.7277 338.715 34.1703 338.489 34.6292C338.264 35.0325 338.103 35.4671 338.011 35.9181C337.975 36.0869 337.961 36.2594 337.969 36.4316C337.995 36.5446 337.995 36.6421 338.042 36.6935C338.089 36.7448 338.068 36.7294 338.089 36.75C338.102 36.7727 338.125 36.7879 338.151 36.7911C338.151 36.7911 338.182 36.8219 338.219 36.8219C338.253 36.8166 338.288 36.8166 338.323 36.8219C338.561 36.794 338.791 36.7171 338.998 36.5959C339.545 36.2744 340.052 35.89 340.509 35.4508C341.62 34.4273 342.619 33.2914 343.49 32.0618C344.044 31.3007 344.554 30.5086 345.017 29.6894C345.359 29.0732 345.702 28.4519 345.977 27.8151C346.05 27.6559 346.107 27.4916 346.169 27.3324C346.201 27.2554 346.232 27.1733 346.258 27.0911L346.32 26.9011C346.388 26.7047 346.433 26.5015 346.455 26.2952C346.531 26.0033 346.402 25.697 346.138 25.5455C345.879 25.4068 345.546 25.6019 345.359 25.7457C345.266 25.8176 345.188 25.9152 345.12 25.9665C345.071 26.0105 345.01 26.0391 344.944 26.0487C344.944 26.0487 344.809 26.0487 344.747 26.0487C344.671 26.0564 344.594 26.0564 344.518 26.0487C344.373 26.0349 344.233 25.9893 344.108 25.9152C343.967 25.8117 343.839 25.6909 343.729 25.5557C343.626 25.4438 343.536 25.3216 343.459 25.1912C343.368 24.9646 343.336 24.7193 343.365 24.4774C343.364 24.3363 343.392 24.1964 343.448 24.0666C343.478 23.999 343.512 23.9338 343.552 23.8715L343.614 23.7739L343.651 23.7225C343.651 23.6763 343.651 23.6763 343.651 23.6712L343.692 23.6301C344.044 23.3382 344.414 23.0672 344.798 22.8188C345.167 22.5848 345.578 22.4227 346.008 22.3412C346.206 22.3116 346.406 22.2996 346.606 22.3053H346.907L347.193 22.3669C347.59 22.4648 347.964 22.6393 348.294 22.8804L348.735 23.3939C348.874 23.5616 348.991 23.7462 349.083 23.9434C349.171 24.1436 349.223 24.3644 349.301 24.5801C349.379 24.7958 349.363 25.0525 349.394 25.2887C349.426 25.5249 349.394 25.8022 349.368 26.0538C349.335 26.3163 349.279 26.5756 349.202 26.8292C349.147 27.0995 349.073 27.3655 348.979 27.6251L348.875 27.9332C348.849 28.0103 348.823 28.0873 348.792 28.1592C348.137 29.7525 347.264 31.2489 346.195 32.6061L346.149 32.5752Z" fill="#231F20"/>
<path d="M348.787 34.352C348.048 35.3051 347.245 36.2075 346.382 37.053C346.055 37.3508 345.77 37.6794 345.416 37.9516C344.793 38.4359 344.131 38.8703 343.438 39.2507C343.077 39.4487 342.702 39.6203 342.316 39.7642C341.907 39.9268 341.474 40.0239 341.033 40.0518C340.598 40.0677 340.166 39.9684 339.782 39.7642C339.338 39.5553 339.013 39.1589 338.899 38.6859C338.847 38.3738 338.885 38.0534 339.008 37.7616C339.109 37.5178 339.255 37.2949 339.439 37.1043C339.735 36.7724 340.087 36.4928 340.478 36.2776C340.722 36.1543 340.841 36.3495 340.862 36.6935C340.887 37.1043 340.831 37.516 340.696 37.9054C340.635 38.0369 340.59 38.1747 340.561 38.3162C340.561 38.3675 340.561 38.3162 340.561 38.347C340.561 38.347 340.53 38.347 340.644 38.4086C340.816 38.5036 341.017 38.5328 341.21 38.4908C341.365 38.4732 341.517 38.4352 341.662 38.3778C341.818 38.2956 341.979 38.2391 342.14 38.1416C342.946 37.6217 343.65 36.9604 344.217 36.1903C344.907 35.3636 345.655 34.5625 346.294 33.6639C346.692 33.1224 347.058 32.5583 347.39 31.9745C347.908 31.1405 348.278 30.2254 348.486 29.2683C348.548 28.9693 348.513 28.6585 348.387 28.38C348.372 28.336 348.343 28.2981 348.304 28.2722C348.281 28.2541 348.249 28.2541 348.226 28.2722L348.34 28.1797L348.403 28.1335C348.439 28.1335 348.486 28.0513 348.506 28.0359C348.528 28.0143 348.547 27.9901 348.564 27.9641C348.615 27.8922 348.564 27.9076 348.564 28.0565C348.553 28.1572 348.553 28.2587 348.564 28.3594C348.564 28.4262 348.564 28.493 348.564 28.5597V28.5957L348.449 28.6213C348.231 28.6784 348.002 28.6784 347.785 28.6213C347.559 28.5151 347.368 28.3477 347.234 28.1386C347.151 28.0257 347.063 27.923 346.995 27.8151C346.89 27.6315 346.855 27.4163 346.897 27.2092C346.931 26.9549 347.045 26.7178 347.224 26.5314C347.39 26.3339 347.584 26.161 347.8 26.0179C348.242 25.7332 348.793 25.6687 349.291 25.8433C349.632 25.9405 349.945 26.1165 350.205 26.3568C350.263 26.4082 350.315 26.4595 350.36 26.5109C350.407 26.5622 350.438 26.6033 350.475 26.6495L350.677 26.9371C350.79 27.1177 350.88 27.3107 350.947 27.5122C351.014 27.6776 351.063 27.8498 351.093 28.0257C351.191 28.5977 351.181 29.1829 351.061 29.751C350.973 30.2136 350.843 30.6674 350.672 31.1067C350.181 32.2714 349.55 33.3731 348.792 34.3879L348.787 34.352Z" fill="#231F20"/>
<rect x="18" y="60" width="54.6176" height="54.3781" fill="white"/>
<path d="M44.4116 91.1559C44.9347 90.5896 45.3827 89.959 45.7449 89.2794C45.8559 89.0419 45.9473 88.7959 46.018 88.5436C46.3437 87.5648 46.487 86.535 46.441 85.5049C46.4178 85.0342 46.3515 84.5667 46.2429 84.1081C46.1197 83.5217 45.9323 82.9512 45.8573 82.3435C45.8573 82.1569 46.0715 82.0769 46.3928 82.1409C46.7586 82.2052 47.0744 82.4332 47.2495 82.7593C47.8198 84.0104 48.0258 85.3958 47.8439 86.7577C47.7975 87.6083 47.6702 88.4527 47.4637 89.2794C47.3918 89.5167 47.3024 89.7483 47.196 89.9724C47.0943 90.1857 46.9765 90.3776 46.864 90.5802C46.6283 90.9704 46.369 91.3461 46.0876 91.705C45.7394 92.1538 45.3544 92.5728 44.9363 92.9579C44.2919 93.5428 43.5604 94.0248 42.7677 94.3866C42.1587 94.7063 41.4997 94.9208 40.8186 95.021C40.6654 95.0342 40.5113 95.0342 40.3581 95.021C40.2374 95.0245 40.1167 95.0119 39.9993 94.9837C39.9144 94.9483 39.8378 94.8956 39.7744 94.8291C39.662 94.7219 39.5918 94.5782 39.5763 94.4239C39.5611 94.35 39.5504 94.2752 39.5442 94.2C39.5442 93.9761 39.7851 93.7682 40.1225 93.6136C40.5836 93.4909 41.0377 93.3432 41.4826 93.1711C41.917 93.0087 42.3348 92.8052 42.7302 92.5634C43.3538 92.166 43.9119 91.6751 44.3848 91.108L44.4116 91.1559Z" fill="#231F20"/>
<path d="M24.6262 78.2385C24.5657 78.3548 24.5156 78.4761 24.4762 78.601C24.4762 78.6436 24.4762 78.681 24.4762 78.7183C24.4104 78.8503 24.3687 78.9929 24.3531 79.1394C24.3531 79.2034 24.3959 79.2141 24.4441 79.2247C24.4923 79.2354 24.6154 79.1448 24.5726 79.342C24.4521 79.6456 24.3052 79.9382 24.1335 80.2163C23.8926 80.6162 23.5659 80.9467 23.4267 80.8774C23.3182 80.8124 23.216 80.7374 23.1215 80.6535C23.0333 80.5529 22.9577 80.4419 22.8966 80.323C22.7847 80.0986 22.749 79.8442 22.7949 79.5979C22.8484 79.3207 22.7306 79.1341 22.736 78.9155C22.7533 78.6949 22.7946 78.4769 22.8591 78.2651L22.9716 77.9079C23.0144 77.7267 23.1108 77.5614 23.1322 77.3748C23.1219 77.2361 23.0985 77.0987 23.0626 76.9643C23.0626 76.9323 23.0626 76.895 23.0626 76.863C23.0626 76.7457 23.2125 76.7457 23.5981 76.863L23.8551 76.9377C24.0767 77.0005 24.284 77.1055 24.4655 77.2469C24.6404 77.4089 24.7442 77.633 24.7547 77.8706C24.7424 77.9982 24.7136 78.1236 24.669 78.2438L24.6262 78.2385Z" fill="#231F20"/>
<path d="M56.6148 108.568C56.3867 108.515 56.1643 108.44 55.9509 108.344C55.8732 108.323 55.7978 108.294 55.726 108.258C55.474 108.103 55.2672 107.884 55.1262 107.624C55.0727 107.517 54.9924 107.432 54.9335 107.336C54.8292 107.233 54.7813 107.086 54.805 106.942C54.805 106.888 54.9977 106.824 55.1958 106.771C55.3428 106.721 55.4959 106.69 55.651 106.68C55.817 106.76 55.9294 106.739 55.9401 106.92C55.9509 107.102 56.0687 107.011 56.1383 107.043C56.2328 107.092 56.3337 107.128 56.4381 107.15C56.5111 107.158 56.5847 107.158 56.6577 107.15C56.7767 107.157 56.8957 107.137 57.0057 107.091C57.086 107.048 57.1182 106.91 57.1664 106.819C57.2146 106.728 57.1664 106.776 57.1985 106.771C57.2306 106.766 57.327 106.814 57.5465 107.112L57.6911 107.309C57.8449 107.483 57.9288 107.707 57.9267 107.939C57.9181 108.034 57.8946 108.127 57.8571 108.216C57.8161 108.283 57.7656 108.344 57.7072 108.397C57.5897 108.491 57.4552 108.562 57.3109 108.605C57.0822 108.642 56.8489 108.642 56.6202 108.605L56.6148 108.568Z" fill="#231F20"/>
<path d="M26.5698 98.4917C26.9098 99.002 27.3441 99.4435 27.8496 99.7925C28.051 99.9145 28.2603 100.023 28.4761 100.118C29.241 100.528 30.0702 100.805 30.9285 100.939C31.3134 101 31.7056 101 32.0905 100.939C32.5831 100.88 33.049 100.789 33.5095 100.704C33.6648 100.704 33.7611 100.816 33.7397 101.061C33.7214 101.218 33.6742 101.37 33.6005 101.509C33.5067 101.662 33.376 101.788 33.2203 101.877C32.6641 102.156 32.0491 102.298 31.4265 102.293C31.126 102.3 30.8254 102.286 30.5269 102.25C30.2298 102.202 29.9376 102.127 29.6541 102.026C28.9536 101.827 28.2667 101.583 27.5979 101.296C26.8842 100.918 26.2527 100.404 25.7399 99.7818C25.5953 99.5739 25.4346 99.382 25.3061 99.1687L24.9313 98.5023C24.6802 97.8116 24.5007 97.097 24.3958 96.3699C24.2822 95.7996 24.2515 95.2161 24.3048 94.6372C24.3093 94.5083 24.3327 94.3808 24.3744 94.2587C24.5404 93.8056 24.7064 93.7256 25.0384 93.7256C25.1103 93.7292 25.1819 93.7381 25.2526 93.7522C25.494 93.8483 25.6424 94.0918 25.6167 94.3493C25.6595 94.8025 25.6167 95.181 25.6702 95.5702C25.7116 95.9689 25.7887 96.3632 25.9005 96.7484L26.0451 97.2388L26.2004 97.6493C26.243 97.7893 26.3062 97.9222 26.3878 98.0438C26.451 98.176 26.5282 98.3011 26.618 98.417L26.5698 98.4917Z" fill="#231F20"/>
<path d="M68.4968 89.0768C68.3283 89.4949 68.1278 89.8994 67.8971 90.2869C67.7793 90.4789 67.6776 90.6815 67.5437 90.8627L67.1528 91.3958C66.9782 91.6679 66.7831 91.9263 66.5691 92.1689C66.3814 92.3834 66.1753 92.5814 65.9534 92.7606C65.7392 92.9472 65.5357 93.1391 65.3215 93.2937C64.878 93.6293 64.413 93.9356 63.9293 94.2107C63.7151 94.328 63.5116 94.4613 63.3081 94.5892L62.687 94.9677C62.1741 95.3213 61.5857 95.5513 60.9682 95.6395C60.77 95.6395 60.6844 95.2663 60.7058 94.8398C60.7272 94.4133 60.845 93.9655 61.1288 93.8482L61.509 93.6989L61.8731 93.5123C62.1141 93.3897 62.3711 93.2937 62.6067 93.1658C62.8423 93.0378 63.0779 92.9099 63.3296 92.7873C63.5812 92.6647 63.7954 92.51 64.0471 92.3821C64.612 92.0053 65.0857 91.5081 65.4339 90.9267C65.6696 90.6388 65.8302 90.3029 66.039 89.9937C66.2479 89.6845 66.3924 89.338 66.5317 88.9861L66.7833 88.3357L66.9707 87.68C67.0564 87.3335 67.11 86.9816 67.1689 86.6138C67.2134 86.2602 67.226 85.9033 67.2063 85.5475C67.1609 85.0073 67.0677 84.4721 66.9279 83.9482C66.9279 83.8309 66.8797 83.7189 66.8744 83.6016C66.8409 83.4366 66.8596 83.2652 66.9279 83.1112C67.0168 82.9809 67.1316 82.8703 67.2652 82.786C67.3295 82.7433 67.3884 82.6953 67.4473 82.6633C67.5553 82.61 67.682 82.61 67.79 82.6633C67.9674 82.7168 68.123 82.8251 68.2344 82.9726C68.4285 83.2192 68.6073 83.4773 68.7699 83.7456C68.9121 84.015 69.0183 84.3017 69.0858 84.5986C69.1697 84.8932 69.227 85.1948 69.2572 85.4995C69.2661 85.8075 69.2536 86.1156 69.2197 86.4218C69.1792 86.8765 69.104 87.3273 68.9948 87.7706C68.8716 88.2131 68.7538 88.6556 68.5878 89.0821L68.4968 89.0768Z" fill="#231F20"/>
<path d="M38.0128 70.2204C37.729 70.343 37.4773 70.4922 37.1721 70.6362C36.8669 70.7801 36.6366 70.9774 36.385 71.1693C36.1333 71.3612 36.0583 71.5105 35.8816 71.6704C35.2456 72.2603 34.7039 72.9435 34.2752 73.6963C34.0975 74.0343 33.9609 74.3923 33.8683 74.7625C33.7724 75.2364 33.6325 75.7004 33.4506 76.1486C33.381 76.2979 33.1936 76.3032 32.958 76.1486C32.7224 75.994 32.3476 75.6795 32.369 75.333C32.3685 75.0297 32.39 74.7268 32.4332 74.4267C32.5042 74.1392 32.5973 73.8576 32.7117 73.5843C32.8348 73.3178 32.9633 73.0512 33.1079 72.8007C33.2525 72.5501 33.4346 72.3155 33.6113 72.0863C34.0664 71.5532 34.4145 70.9187 34.9178 70.4069C35.1892 70.1226 35.4848 69.8622 35.8013 69.6286L36.2779 69.2821L36.8134 68.9942C37.2394 68.7935 37.6797 68.6242 38.1306 68.4877C38.484 68.3918 38.8374 68.3118 39.2015 68.2212C39.5656 68.1305 39.9191 68.1359 40.2725 68.0772C40.6259 68.0186 40.8079 68.0239 41.0917 67.9919C41.3664 67.9512 41.6443 67.9369 41.9217 67.9493C42.0425 67.9432 42.1635 67.9558 42.2805 67.9866C42.7195 68.1199 42.8159 68.2585 42.8588 68.589C42.8638 68.6564 42.8638 68.7242 42.8588 68.7916C42.8588 68.9835 42.6339 69.2128 42.3233 69.3247L41.9806 69.442C41.8736 69.4697 41.7643 69.4875 41.654 69.4953C41.4344 69.4953 41.2256 69.5859 41.0168 69.6179C40.8079 69.6499 40.5937 69.6499 40.3903 69.6872C40.1868 69.7246 39.9833 69.7565 39.7798 69.7779C39.627 69.7916 39.4762 69.822 39.33 69.8685L38.8856 69.9805C38.592 70.0697 38.3042 70.1765 38.0235 70.3003L38.0128 70.2204Z" fill="#231F20"/>
<path d="M40.5402 79.8165C39.4183 79.6128 38.2622 79.7066 37.1882 80.0884C35.2499 80.7799 33.7352 82.3154 33.0758 84.2574C32.527 85.6756 32.4891 87.2394 32.9687 88.6823C33.4843 90.1698 34.4355 91.4695 35.6996 92.4141C36.8394 93.2367 38.2115 93.679 39.6192 93.6776C40.5344 93.739 41.4538 93.6853 42.3554 93.5176C43.2717 93.3615 44.1653 93.0947 45.0167 92.7233C45.5522 92.4781 45.5843 92.6273 45.2737 93.1071C45.1817 93.2503 45.0759 93.3842 44.9578 93.507C44.8157 93.6759 44.6579 93.8312 44.4866 93.9708C44.0739 94.3435 43.5867 94.6251 43.0569 94.7971C42.0311 95.1391 40.9623 95.3365 39.8816 95.3836C38.771 95.4054 37.6658 95.2247 36.6206 94.8504C36.3495 94.7554 36.0848 94.6432 35.8281 94.5146C35.5575 94.3874 35.2963 94.2413 35.0463 94.0774C34.5913 93.7595 34.1649 93.4027 33.7719 93.0112C32.9681 92.25 32.3143 91.346 31.8442 90.3456C31.2673 89.1274 30.9587 87.8005 30.9393 86.4538C30.9326 85.0981 31.256 83.7609 31.8817 82.5567C33.2912 79.9258 35.9058 78.1492 38.8803 77.8013C40.6752 77.6327 42.4809 77.9845 44.0796 78.8142C45.2747 79.4572 46.3017 80.3702 47.0783 81.4798C47.4544 82.0302 47.7721 82.618 48.026 83.2338C48.3022 83.8573 48.4827 84.5187 48.5615 85.1957C48.7417 87.2663 48.2419 89.3391 47.1372 91.1026C46.9098 91.4923 46.6539 91.8647 46.3714 92.2168C46.0173 92.7126 45.5539 93.121 45.0167 93.411C44.7309 93.5658 44.3932 93.5948 44.085 93.491C43.9596 93.4606 43.8376 93.4177 43.7209 93.363C43.3943 93.1391 43.7209 92.5634 44.3527 91.7157C45.3252 90.5132 46.0182 89.1114 46.3822 87.6107C46.551 86.9131 46.5999 86.1921 46.5267 85.4782C46.4772 85.1377 46.391 84.8034 46.2697 84.4813C45.3583 82.0074 43.1591 80.2292 40.5402 79.8485V79.8165Z" fill="#231F20"/>
<path d="M36.8508 67.3895C38.6497 66.6234 40.6566 66.488 42.5428 67.0057C43.2275 67.1637 43.8883 67.4111 44.5079 67.7414C46.6128 68.9502 48.0307 71.0677 48.3419 73.4671C48.4952 74.4585 48.4716 75.4692 48.2723 76.4525C48.1376 77.0802 47.9045 77.6829 47.5815 78.2385C47.4998 78.3761 47.4086 78.5079 47.3084 78.633C47.2013 78.7556 47.0835 78.8675 46.9711 78.9795C46.7503 79.2042 46.5041 79.4028 46.2375 79.5713C45.9162 79.7845 45.852 79.6139 45.8948 79.2301C45.8948 79.0328 45.9644 78.7982 46.0019 78.521C46.033 78.2344 46.0795 77.9497 46.1411 77.668C46.51 76.7633 46.6355 75.7783 46.5052 74.8105C46.3702 73.8488 46.0771 72.9159 45.6378 72.049C45.3602 71.5177 44.9647 71.0564 44.4812 70.7002C44.2395 70.5233 43.9791 70.3731 43.7047 70.2523L43.2978 70.0498C43.1586 69.9911 43.014 69.9538 42.8694 69.9005C42.2446 69.6686 41.5867 69.5372 40.9203 69.5113C40.5779 69.4927 40.2347 69.4927 39.8922 69.5113C39.5455 69.5377 39.2016 69.593 38.8641 69.6766C38.0103 69.863 37.2022 70.2164 36.4867 70.7162C35.3699 71.4624 34.5292 72.5522 34.0931 73.8189C34.0117 74.0588 33.9596 74.3076 33.9378 74.5599L33.8843 74.9385V75.317C33.8843 75.5729 33.8843 75.8128 33.9218 76.0687C33.9593 76.3246 34.0021 76.5645 34.0556 76.8097C34.1092 77.0549 34.1788 77.2309 34.227 77.4388C34.3662 78.2331 34.3073 78.505 33.82 78.9315C33.7129 79.0222 33.6112 79.1341 33.5041 79.2087C33.14 79.4753 32.5885 79.2781 32.1494 78.5743C31.8227 78.0531 31.589 77.4795 31.4586 76.879C31.3886 76.5764 31.335 76.2703 31.298 75.9621C31.2712 75.6422 31.2659 75.317 31.2659 74.9918C31.2722 73.6417 31.642 72.318 32.3368 71.1587C33.3785 69.4328 34.9524 68.0883 36.824 67.3255L36.8508 67.3895Z" fill="#231F20"/>
<path d="M38.9498 82.5194C39.2997 82.6198 39.6583 82.6876 40.0208 82.722C40.1588 82.7175 40.2965 82.705 40.4331 82.6847C40.9533 82.7106 41.4743 82.6512 41.9752 82.5088C42.1918 82.4343 42.3985 82.334 42.591 82.2102C42.8045 82.0075 43.0605 81.8546 43.3407 81.7624C43.4477 81.7624 43.6994 81.965 43.8761 82.2635C44.0528 82.5621 44.2081 82.9779 44.0689 83.1858C43.9297 83.3937 43.7958 83.511 43.6512 83.6603C43.496 83.8004 43.3334 83.9321 43.1639 84.0548C42.9749 84.1309 42.7818 84.1967 42.5856 84.2521C42.3847 84.2965 42.1806 84.325 41.9752 84.3374C41.7372 84.3527 41.5018 84.3956 41.2738 84.4653C41.0454 84.5308 40.8128 84.5807 40.5776 84.6146C40.0519 84.6617 39.5222 84.6366 39.0034 84.5399C38.6845 84.4752 38.3698 84.3916 38.061 84.2894C37.8307 84.2041 37.6058 84.0975 37.3863 83.9962C37.1667 83.8949 36.9525 83.7669 36.7491 83.6336C36.5456 83.5004 36.401 83.4577 36.2457 83.3511C36.0904 83.2445 35.9298 83.1218 35.7852 82.9939C35.717 82.9412 35.6574 82.8782 35.6085 82.8073C35.5582 82.7544 35.5328 82.6827 35.5389 82.61C35.5387 82.5486 35.5478 82.4876 35.5657 82.4288C35.6175 82.3065 35.6984 82.1986 35.8013 82.1142C35.852 82.0632 35.9056 82.0151 35.9619 81.9703C36.1782 81.8383 36.4332 81.7838 36.6848 81.8157C36.8883 81.8157 36.9632 81.8903 37.1185 81.8957C37.2738 81.901 37.3756 81.9383 37.4827 81.965C37.5898 81.9726 37.694 82.0035 37.7879 82.0556C37.8759 82.1028 37.9672 82.1437 38.061 82.1782C38.3467 82.3111 38.6467 82.4112 38.9552 82.4768L38.9498 82.5194Z" fill="#231F20"/>
<path d="M52.2455 98.8435C53.4785 98.2299 54.4932 97.255 55.153 96.05C55.3684 95.6081 55.5319 95.143 55.6403 94.6638C55.7618 94.2419 55.8319 93.807 55.8491 93.3684C55.8625 93.1464 55.8625 92.9239 55.8491 92.702C55.8478 92.5964 55.837 92.4911 55.817 92.3874C55.8087 92.2829 55.7908 92.1794 55.7635 92.0782C55.5412 91.1523 55.1412 90.2779 54.5854 89.5033C54.0803 88.7901 53.4422 88.1802 52.706 87.7066C52.2449 87.422 51.7571 87.1827 51.2495 86.9923C50.9978 86.907 50.7569 86.7737 50.4998 86.6991L50.1196 86.5551C49.9858 86.5231 49.8573 86.4858 49.7234 86.4432C49.3914 86.3312 49.4021 85.9474 49.7555 85.5369C50.2549 84.9786 51.0063 84.7131 51.7475 84.8331C52.481 84.9847 53.1811 85.2664 53.8144 85.6648C54.4373 86.0391 55.0142 86.4846 55.5332 86.9923C56.0469 87.4892 56.5031 88.0417 56.8933 88.6396C57.301 89.2437 57.6285 89.8978 57.8678 90.5855C57.9428 90.7934 58.0017 91.0067 58.0606 91.2359C58.1172 91.4696 58.1601 91.7063 58.1891 91.9449C58.2338 92.1703 58.2642 92.3982 58.2802 92.6273C58.3117 92.8499 58.3296 93.0743 58.3337 93.2991C58.3812 94.1997 58.2707 95.1018 58.0071 95.9647C57.386 97.8068 56.1477 99.3804 54.4998 100.422C53.536 101.047 52.4707 101.501 51.3512 101.765C50.5161 101.969 49.6559 102.051 48.797 102.01C47.9392 101.985 47.0888 101.844 46.2696 101.589C44.9615 101.226 43.7604 100.555 42.7677 99.6325C42.5391 99.4332 42.3392 99.2036 42.1733 98.9501C42.051 98.7464 41.9471 98.5323 41.8628 98.3104C41.792 98.1569 41.7608 97.9884 41.7717 97.8199C41.7983 97.5623 41.9093 97.3206 42.0877 97.1322C42.1555 97.0476 42.2289 96.9674 42.3072 96.8923C42.4357 96.791 42.6017 96.8123 42.8427 96.8923C42.9713 96.9428 43.0965 97.0016 43.2175 97.0682C43.2854 97.0996 43.3471 97.1429 43.3996 97.1962C43.4668 97.2396 43.5296 97.2896 43.587 97.3454C43.7536 97.5066 43.9326 97.6546 44.1224 97.7879C44.2146 97.8507 44.2991 97.9241 44.3741 98.0065C44.4598 98.0811 44.5508 98.1451 44.6365 98.2144L44.8935 98.417L45.1666 98.5983C45.3383 98.7206 45.5171 98.8327 45.7021 98.9341C46.4836 99.3505 47.3413 99.6061 48.2241 99.6858C49.5975 99.7895 50.9709 99.4852 52.1705 98.8115L52.2455 98.8435Z" fill="#231F20"/>
<path d="M66.7726 86.2566C66.7838 84.5734 66.217 82.937 65.1662 81.6184C64.7539 81.1596 64.28 80.7596 63.758 80.4296C62.8396 79.7685 61.7956 79.3005 60.6897 79.0541C60.1134 78.9408 59.526 78.8925 58.9388 78.9102C58.3259 78.9262 57.7168 79.0121 57.1235 79.1661C56.0897 79.4481 55.1505 80.0003 54.4034 80.7654C53.4342 81.7517 52.8826 83.0579 52.042 84.2734C51.7849 84.6572 51.5547 84.5079 51.3994 84.0175C51.2997 83.7035 51.2474 83.3765 51.2441 83.0472C51.2321 82.8383 51.2465 82.6287 51.2869 82.4234C51.3384 82.2137 51.412 82.01 51.5065 81.8157C52.2693 80.2556 53.4808 78.9566 54.987 78.0839C55.7554 77.6753 56.5696 77.3585 57.4127 77.1402C58.2425 76.9115 59.1005 76.8002 59.9615 76.8097C61.0234 76.8149 62.0808 76.9492 63.11 77.2095C63.6395 77.3391 64.1518 77.5306 64.6361 77.78C65.1248 78.0131 65.5893 78.2935 66.023 78.617C67.8807 80.1045 69.1451 82.2026 69.5892 84.5346C69.858 85.9312 69.8398 87.3675 69.5356 88.7569C69.0575 90.8566 67.8775 92.7324 66.189 94.0774C64.9723 95.1776 63.5004 95.9598 61.9052 96.3538C61.5535 96.4396 61.1954 96.4966 60.8343 96.5244C60.3427 96.5866 59.8435 96.5031 59.3993 96.2845C59.2663 96.2129 59.1511 96.1128 59.0619 95.9913C58.9863 95.8585 58.927 95.7171 58.8852 95.5702C58.8396 95.4569 58.8003 95.3412 58.7674 95.2236C58.7085 94.9517 59.3029 94.4719 60.0525 94.312C61.1508 94.1027 62.1893 93.6549 63.094 93.0005C63.5392 92.6828 63.955 92.3259 64.3363 91.9343C64.529 91.7317 64.7164 91.5184 64.8717 91.2999C64.952 91.1986 65.0163 91.0866 65.102 90.9907C65.1925 90.8998 65.2733 90.7997 65.3429 90.6921C66.3057 89.4371 66.7879 87.8815 66.703 86.3045L66.7726 86.2566Z" fill="#231F20"/>
<path d="M28.5939 102.607C26.9236 101.992 25.5308 100.8 24.6689 99.2487C24.5083 98.9768 24.3744 98.7155 24.2245 98.417C24.1016 98.1316 23.9943 97.8397 23.9032 97.5427C23.6298 96.4862 23.5987 95.382 23.8122 94.312C24.0204 93.2692 24.4454 92.2814 25.0598 91.4118C25.6152 90.6535 26.3003 89.9984 27.0839 89.4766C27.3416 89.31 27.6079 89.157 27.8817 89.0181C28.1585 88.8971 28.4475 88.8059 28.7438 88.7462C29.0418 88.6885 29.3454 88.6653 29.6487 88.6769C29.9473 88.6803 30.2442 88.7215 30.5323 88.7995C30.891 88.8902 30.7946 89.1727 30.5055 89.5033C30.176 89.8835 29.7959 90.2172 29.3757 90.4949C29.0055 90.6734 28.6477 90.8765 28.3047 91.1026C27.9686 91.3462 27.663 91.629 27.3944 91.9449C26.8296 92.613 26.3544 93.3513 25.9808 94.1414C25.7834 94.6615 25.7012 95.218 25.7398 95.7727C25.7898 96.3403 25.9122 96.8993 26.104 97.4361C26.3124 98.0198 26.6243 98.5615 27.025 99.0354C27.4408 99.5136 27.9373 99.916 28.4921 100.224C29.1882 100.605 29.9637 100.818 30.7572 100.848C31.3706 100.86 31.9824 100.781 32.5724 100.613C33.1811 100.441 33.7605 100.178 34.2912 99.8351C35.0549 99.2877 35.6636 98.5531 36.0583 97.7026L36.3046 97.1375C36.4137 96.8709 36.6001 96.6426 36.8401 96.4818C37.0481 96.3709 37.2872 96.3315 37.5201 96.3698C37.6467 96.3616 37.7737 96.3616 37.9003 96.3698C38.2912 96.4338 38.5107 96.9029 38.4357 97.6227C38.3446 98.1572 38.1636 98.6727 37.9003 99.1474C37.6282 99.6588 37.2917 100.134 36.899 100.56C36.0773 101.423 35.0654 102.084 33.9432 102.49C33.7397 102.57 33.5416 102.634 33.3381 102.698L32.6795 102.869C32.4576 102.922 32.2321 102.96 32.0048 102.98C31.7798 103.016 31.5525 103.036 31.3248 103.039C30.4062 103.075 29.489 102.94 28.6206 102.639L28.5939 102.607Z" fill="#231F20"/>
<path d="M60.1061 69.8099C59.894 70.0467 59.663 70.266 59.4153 70.4656C59.2453 70.6048 59.0664 70.7331 58.8799 70.8494C58.6987 70.9462 58.5108 71.0299 58.3176 71.1C58.0574 71.2206 57.7817 71.3049 57.4984 71.3506C57.2785 71.3621 57.0586 71.3313 56.8504 71.2599C56.6343 71.1973 56.4457 71.0639 56.315 70.8814C56.2454 70.8121 56.24 70.6788 56.2025 70.5989C56.1655 70.5095 56.1508 70.4126 56.1597 70.3163C56.1541 70.1022 56.1886 69.8888 56.2614 69.6872C56.4192 69.2599 56.6354 68.8562 56.904 68.4877C57.0646 68.2372 57.1396 68.0985 57.252 67.9546C57.365 67.8021 57.5004 67.6673 57.6536 67.5548C57.7554 67.4855 57.8839 67.6134 57.991 67.8053C58.1141 67.9927 58.1654 68.2178 58.1356 68.4397L58.0017 68.8183H57.9696C57.8571 68.8914 57.768 68.995 57.7125 69.1168C57.6376 69.2501 57.7125 69.3407 57.7607 69.33C57.8313 69.3237 57.9012 69.3112 57.9696 69.2927C58.0527 69.2913 58.1346 69.2732 58.2105 69.2394L58.339 69.1754C58.4217 69.1224 58.5004 69.0636 58.5746 68.9995C58.6744 68.9162 58.7691 68.8272 58.8584 68.733C58.932 68.6543 59 68.5705 59.0619 68.4824C59.1384 68.3868 59.1932 68.2758 59.2226 68.1572C59.2718 68.0321 59.2718 67.8931 59.2226 67.768C59.2011 67.7242 59.1677 67.6873 59.1262 67.6614C59.1062 67.6493 59.0846 67.6403 59.0619 67.6347C59.0619 67.6347 59.0084 67.6347 59.0137 67.6347L59.1583 67.3682C59.1556 67.393 59.1556 67.418 59.1583 67.4428C59.1532 67.4889 59.1532 67.5354 59.1583 67.5814C59.1983 67.707 59.2541 67.827 59.3243 67.9386C59.3725 68.0026 59.3243 67.9706 59.2065 67.9066C59.0887 67.8426 58.9334 67.6934 58.671 67.4695L58.2962 67.1709C57.8946 66.8884 57.6376 66.4619 57.8678 66.0993C58.0611 65.7576 58.3796 65.5036 58.7567 65.3903C58.8879 65.3558 59.0227 65.3362 59.1583 65.3317C59.3091 65.3286 59.4599 65.3411 59.6081 65.369C59.8989 65.4318 60.1717 65.5594 60.4059 65.7422L60.5291 65.8381L60.6201 65.9181C60.6724 65.9757 60.7191 66.0382 60.7593 66.1047C60.8072 66.1666 60.861 66.2237 60.92 66.2753C60.9896 66.3233 60.995 66.4192 61.0324 66.4885C61.1433 66.7965 61.2012 67.121 61.2038 67.4481V67.8693L61.0271 68.4877C60.9146 68.6796 60.8022 68.8662 60.7058 69.0528C60.4113 69.4527 60.3042 69.5859 60.1382 69.8312L60.1061 69.8099Z" fill="#231F20"/>
<path d="M57.5358 109.095C57.2325 109.286 56.8906 109.408 56.5345 109.453C56.172 109.497 55.804 109.451 55.4636 109.319C55.2415 109.255 55.0341 109.148 54.8532 109.005C54.7185 108.879 54.5949 108.741 54.4837 108.594C54.3608 108.431 54.2617 108.252 54.1892 108.061C54.0703 107.719 54.0264 107.355 54.0607 106.995C54.0825 106.69 54.1437 106.389 54.2427 106.099C54.3123 105.902 54.4216 105.72 54.564 105.566C54.7237 105.387 54.9501 105.281 55.1905 105.273C55.3351 105.273 55.3779 105.587 55.4315 105.902C55.4587 106.126 55.5239 106.344 55.6242 106.547C55.6242 106.627 55.5546 106.91 55.5171 107.245C55.5064 107.327 55.5389 107.407 55.6028 107.459C55.6938 107.523 55.7886 107.582 55.8866 107.635C56.0167 107.769 56.2075 107.825 56.3899 107.784C56.5438 107.747 56.6822 107.663 56.7862 107.544C56.9682 107.373 57.1128 107.075 57.0539 106.936C56.995 106.798 56.9308 106.968 56.8397 107C56.7487 107.032 56.7862 107.043 56.7541 107.048C56.6363 107.048 56.5613 106.968 56.4488 106.515L56.3632 106.222C56.246 105.95 56.3299 105.633 56.5666 105.454C56.7738 105.35 57.0039 105.298 57.236 105.305C57.5655 105.311 57.8829 105.43 58.1356 105.641C58.4257 105.877 58.6275 106.204 58.7085 106.568C58.7697 106.855 58.7697 107.151 58.7085 107.437C58.5626 108.124 58.1558 108.727 57.5733 109.122L57.5358 109.095Z" fill="#231F20"/>
<path d="M54.3338 93.2138C54.3131 93.147 54.2643 93.0925 54.1999 93.0645L53.8144 92.8619C53.7555 92.8619 53.8144 92.8619 53.8144 92.8619C53.8733 92.8619 53.8465 92.8619 53.8626 92.8299C53.8966 92.7601 53.9149 92.6836 53.9161 92.606C53.8952 92.519 53.8684 92.4335 53.8358 92.3501C53.7654 91.9504 53.5793 91.5798 53.3004 91.2839C53.1832 91.1581 53.0329 91.0676 52.8666 91.0226C52.6578 90.9693 52.4972 90.9907 52.3312 90.9267C52.2144 90.7747 52.1607 90.5838 52.1812 90.3936C52.1812 90.1323 52.3579 89.8125 52.6096 89.8071C53.0137 89.7861 53.4147 89.8864 53.7609 90.095C54.0642 90.2899 54.3115 90.56 54.4784 90.8787C54.7383 91.2099 54.9626 91.5672 55.1477 91.9449C55.3622 92.4613 55.3407 93.045 55.0888 93.5443L54.9978 93.6882V93.7256C54.8968 93.8352 54.7698 93.9177 54.6283 93.9655C54.5415 93.9913 54.4512 94.0038 54.3606 94.0028C54.2896 93.9963 54.2196 93.982 54.1517 93.9601C53.9799 93.8955 53.8258 93.7914 53.702 93.6563C53.3914 93.3151 53.2629 92.9899 53.0433 92.7126C52.8743 92.5257 52.6956 92.3478 52.5079 92.1795C52.4681 92.1523 52.4305 92.122 52.3954 92.0889C52.2883 91.9663 52.3419 91.8916 52.5079 91.5878L52.615 91.3852C52.7069 91.1585 52.9614 91.0436 53.1933 91.1239C53.493 91.2275 53.7748 91.3768 54.0286 91.5664C54.2358 91.7277 54.4165 91.9201 54.5641 92.1369C54.6519 92.2485 54.729 92.368 54.7943 92.4941V92.5367L54.7515 92.5953C54.714 92.638 54.6711 92.7073 54.6444 92.7286C54.6176 92.75 54.5962 92.7819 54.5748 92.8139C54.5044 92.9157 54.4451 93.0248 54.3981 93.1391C54.3915 93.169 54.3915 93.1999 54.3981 93.2298L54.3338 93.2138Z" fill="#231F20"/>
<path d="M21.7186 80.0937C21.5748 79.9092 21.4559 79.7067 21.3652 79.4913C21.2746 79.2727 21.2239 79.0399 21.2152 78.8036C21.2052 78.5884 21.2268 78.3728 21.2795 78.1638C21.3148 77.9655 21.3742 77.7722 21.4562 77.5881C21.5132 77.4479 21.5812 77.3124 21.6597 77.1829C21.7278 77.0496 21.8204 76.9303 21.9328 76.831C22.2793 76.5165 22.7081 76.3059 23.1697 76.2233C23.555 76.1546 23.9485 76.1438 24.337 76.1913C24.6665 76.2305 24.9936 76.2874 25.3169 76.3619C25.7888 76.426 26.1939 76.7285 26.3878 77.1616C26.4414 77.3215 26.0826 77.4921 25.7292 77.668C25.5675 77.7452 25.4117 77.8343 25.2634 77.9346C25.1241 78.0199 25.0438 78.0839 25.017 78.0732C24.7707 77.9986 24.3263 77.9293 23.8765 77.844C23.654 77.8048 23.4333 77.9212 23.341 78.1265C23.2795 78.193 23.2403 78.2768 23.2286 78.3664C23.2079 78.4484 23.1972 78.5325 23.1965 78.617C23.2238 78.7725 23.3125 78.9107 23.4428 79.0008C23.7249 79.2289 24.0669 79.3714 24.428 79.4113C24.5775 79.421 24.7276 79.4066 24.8725 79.3687L25.3008 79.2834C25.3584 79.2642 25.4175 79.2499 25.4775 79.2407C25.6971 79.2407 25.7613 79.326 25.9273 79.7365L26.0344 80.0138C26.1627 80.2862 26.0901 80.6104 25.8577 80.8028C25.5266 81.0448 25.1495 81.2171 24.7493 81.3092C24.3643 81.3454 23.9759 81.322 23.5981 81.2399C22.8588 81.0786 22.1896 80.6886 21.6864 80.1257L21.7186 80.0937Z" fill="#231F20"/>
<path d="M41.9591 88.2131C42.1619 87.9364 42.38 87.6712 42.6124 87.4188C42.6981 87.3281 42.7463 87.2002 42.8427 87.1149C43.1787 86.7999 43.5486 86.5228 43.9457 86.2886C44.1331 86.1819 44.3098 86.0593 44.4812 85.9367C44.7346 85.6908 45.1065 85.6102 45.4397 85.7288C45.5575 85.7821 45.4932 86.2352 45.4397 86.6831C45.4187 86.8867 45.4098 87.0914 45.4129 87.2962C45.4129 87.4668 45.4504 87.5627 45.4129 87.584C45.3245 87.6427 45.2267 87.686 45.1237 87.712C45.0338 87.7415 44.94 87.7577 44.8453 87.76C44.7436 87.76 44.6258 87.76 44.5026 87.792C44.2081 87.8346 44.0475 88.0638 43.8279 88.2185C43.5761 88.4002 43.3347 88.596 43.105 88.8049C42.9614 88.9336 42.8255 89.0707 42.6981 89.2154C42.4922 89.4241 42.3124 89.6568 42.1626 89.9084C42.0734 90.1079 42.0087 90.3173 41.9698 90.5322C41.9698 90.5748 41.9698 90.6228 41.9377 90.6655C41.8895 90.8201 41.8146 90.8467 41.5682 90.8254H41.3969C41.2248 90.8155 41.0859 90.6818 41.0703 90.5109C41.055 90.0297 41.158 89.552 41.3701 89.1194C41.5325 88.8026 41.7205 88.4995 41.9324 88.2131H41.9591Z" fill="#231F20"/>
<path d="M36.5992 88.6769C36.8817 88.9191 37.1465 89.181 37.3916 89.4606C37.4773 89.5619 37.5951 89.6366 37.6808 89.7485C37.8159 89.9519 37.9307 90.1679 38.0235 90.3936C38.1092 90.6282 38.1574 90.8627 38.2163 91.0866C38.2598 91.2678 38.3153 91.4458 38.3823 91.6198C38.5029 91.8439 38.5299 92.1063 38.4572 92.3501C38.4197 92.4301 38.1413 92.4514 37.8468 92.4408C37.5523 92.4301 37.2364 92.3981 37.1828 92.3075C36.9768 92.0439 36.8323 91.7379 36.7598 91.4118C36.6894 91.212 36.5607 91.0375 36.3903 90.9107C36.2284 90.7173 36.0492 90.5388 35.8549 90.3776C35.7263 90.2816 35.6032 90.1643 35.464 90.063C35.2559 89.8963 35.0228 89.7631 34.7732 89.6685C34.5697 89.6152 34.3663 89.5832 34.1628 89.5246C34.1185 89.5176 34.0754 89.505 34.0343 89.4873C33.8736 89.418 33.8576 89.274 33.8897 89.0235V88.8475C33.9289 88.6683 34.0441 88.5147 34.2056 88.4264C34.4463 88.3317 34.6955 88.2603 34.9499 88.2131C35.1796 88.1628 35.4189 88.1776 35.6407 88.2558C35.9828 88.3479 36.312 88.4822 36.6206 88.6556L36.5992 88.6769Z" fill="#231F20"/>
<rect y="29" width="34.2394" height="34.2394" fill="white"/>
<path d="M22.8174 41.4267C19.6083 41.947 17.6849 38.3048 17.6849 38.3048L18.5845 37.1232C19.0018 38.2093 19.7604 39.1305 20.7463 39.7483C22.2938 40.6277 23.0222 40.3726 23.0222 40.3726L22.8174 41.4267Z" fill="#231F20"/>
<path d="M10.0045 53.0244C10.0616 52.7592 10.5282 52.4336 10.7363 52.3061C11.4918 51.9368 12.3935 52.0431 13.0424 52.578C15.1136 54.4309 10.9578 54.8841 11.8944 56.6061C12.126 57.0358 10.1992 58.7545 10.1992 58.7545C10.1992 58.7545 9.43721 55.1829 9.76282 53.9039C10.0884 52.625 10.0045 53.0211 10.0045 53.0244Z" fill="#231F20"/>
<path d="M23.3948 37.9826C23.6053 37.4946 23.7836 36.9934 23.9286 36.4821C24.0617 36.0217 24.1283 35.5447 24.1266 35.0655C24.1266 34.9547 24.1031 34.8708 24.0998 34.7735C24.0817 34.6947 24.0582 34.6173 24.0293 34.5418C24.0076 34.48 23.9758 34.4221 23.9353 34.3707C23.8931 34.3079 23.8422 34.2514 23.7842 34.2028C23.5392 33.9929 23.2062 33.9175 22.8947 34.0014C22.3207 34.1155 21.6829 34.5754 21.0887 35.0554C20.0012 35.98 19.0245 37.0277 18.1783 38.1773C17.3408 39.3494 16.6413 40.6144 16.0938 41.947C15.5879 43.1492 15.1596 44.3825 14.8115 45.6395C14.5765 46.4384 14.4087 47.2574 14.1905 48.0664L13.5191 50.48C13.3882 50.9734 13.1834 50.8962 13.0089 50.4128C12.7576 49.6567 12.6717 48.8553 12.7571 48.0631C13.3278 44.6089 14.3348 41.1682 16.3724 38.1068C17.0135 37.1904 17.6648 36.3411 18.3965 35.512C19.1083 34.6213 19.9371 33.8309 20.8604 33.1622C21.4291 32.7659 22.0776 32.4989 22.7604 32.3801C23.1642 32.3271 23.5748 32.3649 23.9621 32.4908C24.3409 32.6147 24.6857 32.825 24.9692 33.1051C25.1158 33.252 25.2463 33.414 25.3586 33.5885C25.4602 33.7601 25.5424 33.9425 25.6036 34.1323L25.6842 34.4076L25.7245 34.6761C25.7487 34.8507 25.7599 35.0269 25.758 35.2031C25.7456 35.8482 25.6451 36.4886 25.4593 37.1064C25.0254 38.5346 24.4094 39.9008 23.6264 41.1715C22.4784 43.0883 21.0551 44.7868 19.6654 46.4585C18.5745 47.7542 17.5137 49.0298 16.3724 50.2551C16.124 50.5236 15.8856 50.7955 15.6205 51.0573C15.2708 51.3967 14.8872 51.6992 14.4758 51.9603C14.2637 52.0814 14.0277 52.1547 13.7843 52.1752C13.7005 52.1828 13.6163 52.1828 13.5325 52.1752C13.4285 52.1752 13.452 52.0308 13.5661 51.7925C13.7297 51.4334 13.9359 51.0952 14.1804 50.7854C14.4154 50.4934 14.6201 50.1779 14.8685 49.8992L15.5936 49.0365L17.0538 47.3145C18.0239 46.1329 18.9907 44.9312 19.897 43.6925C20.5684 42.7795 21.1995 41.8295 21.8037 40.8862C22.4118 39.9646 22.9321 38.9879 23.3579 37.9691L23.3948 37.9826Z" fill="#231F20"/>
<path d="M8.87327 56.6598C8.87327 56.6095 8.87327 56.539 8.83634 56.5088V56.4182L8.81285 56.2369L8.77592 55.8676C8.75578 55.6226 8.739 55.3742 8.73228 55.1258C8.71583 54.6074 8.74391 54.0885 8.8162 53.5749C8.85137 53.1595 8.94634 52.7514 9.09818 52.3631C9.27514 51.9844 9.52232 51.6427 9.8266 51.3561C9.98113 51.2018 10.1536 51.0666 10.3402 50.9533C10.5096 50.864 10.6845 50.7855 10.8639 50.7183C11.5909 50.4261 12.4027 50.4261 13.1297 50.7183C13.7468 50.967 14.2761 51.3935 14.6503 51.9435C14.8839 52.2764 15.0326 52.6613 15.0834 53.0647C15.0834 53.1621 15.0834 53.2628 15.0834 53.3601C15.076 53.4558 15.0637 53.551 15.0464 53.6454C15.0203 53.8322 14.9706 54.0149 14.8987 54.1892C14.8148 54.4074 14.6906 54.347 14.506 54.159C14.412 54.065 14.3113 53.9408 14.1871 53.8233C14.0624 53.7027 13.9447 53.5749 13.8346 53.4407C13.7095 53.2475 13.5692 53.0645 13.415 52.8935C13.2731 52.7709 13.1135 52.6702 12.9417 52.5948C12.7767 52.5416 12.607 52.5045 12.4348 52.484C12.3913 52.489 12.3474 52.489 12.3039 52.484C12.2585 52.4662 12.2112 52.4538 12.1629 52.4471C12.0605 52.4237 11.9558 52.4113 11.8508 52.4101C11.783 52.4053 11.7149 52.4122 11.6493 52.4303C11.5792 52.4386 11.5111 52.459 11.4479 52.4907C11.3909 52.5209 11.2969 52.5545 11.2667 52.578C11.2237 52.6043 11.1843 52.6358 11.1492 52.672C10.9764 52.8798 10.8433 53.1176 10.7564 53.3735C10.4849 54.1608 10.3631 54.9919 10.3973 55.824V56.2335V56.4853C10.3973 56.6296 10.4208 56.7807 10.4443 56.9351L10.4946 57.2439L10.5248 57.4084V57.4286L10.5483 57.4051L10.592 57.3547L11.1425 56.7572L11.3909 56.4752L11.7433 56.0959C12.0009 55.8086 12.2865 55.5477 12.596 55.3171C12.7309 55.2149 12.8747 55.125 13.0256 55.0486C13.2699 54.9129 13.5565 54.8745 13.8279 54.9412C14.0139 54.9992 14.1396 55.1726 14.1367 55.3675C14.1503 55.4576 14.1503 55.5493 14.1367 55.6394C14.0916 55.7623 14.0245 55.8761 13.9387 55.9751C13.8878 56.0641 13.8193 56.1418 13.7373 56.2033C13.3455 56.4701 12.9782 56.7712 12.6396 57.1029L12.3375 57.3916L12.2603 57.4655C12.2334 57.489 12.22 57.5091 12.1462 57.5729L11.8105 57.9086C11.599 58.1335 11.3875 58.345 11.1794 58.5799L10.5651 59.3453L9.8266 60.2114C9.68897 59.6373 9.54799 59.06 9.407 58.486C9.11257 57.9146 8.91841 57.2969 8.83299 56.6598H8.87327Z" fill="#231F20"/>
<path d="M20.7463 40.3458C20.3887 40.1347 20.0516 39.8909 19.7393 39.6173C19.6318 39.5133 19.5043 39.4394 19.4036 39.332C19.0614 38.9402 18.7786 38.5002 18.5644 38.0262C18.5174 37.9222 18.4771 37.8181 18.4267 37.7174C18.3691 37.6218 18.3239 37.5191 18.2925 37.4119C18.2477 37.2754 18.2108 37.1364 18.1817 36.9957C18.1666 36.8511 18.1734 36.7052 18.2018 36.5627C18.222 36.472 18.3865 36.4687 18.5778 36.5089C18.7609 36.5288 18.9333 36.6051 19.0712 36.7271C19.3297 37.0893 19.5312 37.489 19.6688 37.9121C19.8068 38.1637 20.0052 38.3771 20.2461 38.5331C20.4878 38.7443 20.7497 38.9309 21.0283 39.0903C21.2022 39.1902 21.3841 39.2755 21.5721 39.3454C21.8566 39.4525 22.1551 39.518 22.4583 39.5401C22.6886 39.5388 22.9165 39.4932 23.1296 39.4059C23.1746 39.3891 23.2227 39.3823 23.2706 39.3857C23.4418 39.3857 23.519 39.4696 23.6298 39.7214C23.6533 39.7785 23.6835 39.8355 23.7036 39.8926C23.7812 40.077 23.7326 40.2904 23.5828 40.423C23.3682 40.6407 23.0846 40.7772 22.7805 40.809C22.4918 40.8593 22.1965 40.8593 21.9077 40.809C21.4947 40.7104 21.0963 40.558 20.7228 40.3558L20.7463 40.3458Z" fill="#231F20"/>
</svg>
