<svg width="43" height="43" viewBox="0 0 43 43" fill="none" xmlns="http://www.w3.org/2000/svg">
<rect width="43" height="43" rx="5" fill="#DBEAFE"/>
<path d="M33.8696 18.5921C33.8812 18.6345 33.8826 18.6778 33.8719 18.7205C32.4391 24.4362 18.5582 31.75 14.9083 32.7161C14.797 32.7535 14.6745 32.7346 14.5795 32.6655C13.8835 32.0937 14.0084 30.9923 14.8138 30.5888C18.0644 28.9605 24.9126 25.4452 26.4172 23.998C28.1222 22.358 32.3035 19.291 33.4654 18.4468C33.6139 18.3389 33.821 18.4151 33.8696 18.5921Z" fill="#1051E9"/>
<path d="M12.6698 33.0278C12.6698 33.0148 12.6632 33.0027 12.6524 32.9956C11.7047 32.3739 10.8283 31.6496 10.0392 30.8359C9.25625 29.9978 8.58205 29.0644 8.03252 28.0578C6.94127 26.027 6.42252 23.7377 6.53174 21.4349C6.56152 20.6059 6.66165 19.7808 6.83105 18.9687C6.99183 18.1578 7.23479 17.3654 7.55615 16.6037C8.68542 13.926 10.5598 11.6288 12.9564 9.98511C14.1492 9.17634 15.4566 8.55108 16.8349 8.13021C17.1848 8.04589 17.5262 7.93207 17.8804 7.87305L18.9469 7.68334L20.0177 7.60325C20.3761 7.56952 20.7344 7.60325 21.0885 7.60325H21.5649L22.037 7.65383C22.349 7.69178 22.6652 7.70864 22.9771 7.75923C23.5975 7.86372 24.2113 8.00448 24.8152 8.1808C25.4152 8.35218 26.0049 8.55767 26.5815 8.79629C26.8724 8.91432 27.1464 9.06187 27.4247 9.19256C27.7145 9.31485 27.9961 9.45566 28.2678 9.61413C29.6888 10.3931 30.9525 11.4295 31.9945 12.6705C32.9416 13.8216 33.604 15.1773 33.9311 16.6275C33.9956 16.9132 34.0313 17.2075 34.0011 17.4989C33.9798 17.7045 33.9371 17.7998 33.8662 17.8052C33.7566 17.8136 33.5712 17.6071 33.2508 17.2909L30.7213 14.3779C28.8933 12.2387 26.4143 10.7579 23.6643 10.1622C22.3001 9.83602 20.8944 9.71805 19.495 9.81227C18.7992 9.87098 18.1097 9.98803 17.4335 10.1622C16.7481 10.3565 16.0787 10.6032 15.4311 10.8999C13.8584 11.671 12.4817 12.7897 11.4051 14.1713C10.2978 15.583 9.48239 17.2009 9.00635 18.9308C8.45568 20.8129 8.40194 22.8056 8.85037 24.7147C9.32164 26.6329 10.3137 28.3836 11.717 29.7735C12.591 30.646 13.5846 31.3898 14.668 31.9826C15.7508 32.5862 16.9193 33.0212 18.1333 33.2726C19.9504 33.6741 21.8384 33.622 23.6306 33.1208C25.4306 32.5578 27.1093 31.6627 28.5798 30.4818C29.6707 29.5467 30.5969 28.4352 31.32 27.1935C32.0149 25.9585 32.5275 24.6295 32.8418 23.2477L32.9472 22.7966C32.9767 22.6448 32.9936 22.4931 33.0189 22.3413C33.0568 22.0378 33.1285 21.7342 33.1496 21.4265C33.3056 20.2756 33.2634 19.5336 33.3562 19.0025C33.3947 18.7722 33.4511 18.5453 33.5248 18.3237C33.6133 18.1298 33.6892 17.978 33.7651 17.8263C33.841 17.6745 33.8873 17.5101 33.9421 17.4047C34.0433 17.2487 34.2035 17.3836 34.5365 17.8263C34.8347 18.2683 35.0266 18.7733 35.0972 19.3018C35.1394 19.5357 35.1648 19.7724 35.1731 20.01C35.2528 21.4746 35.1107 22.9427 34.7515 24.3648C34.3636 25.8235 33.7628 27.217 32.9683 28.5004C32.5485 29.1438 32.0836 29.7566 31.5771 30.3342C31.3283 30.6294 31.0638 30.9108 30.7846 31.1774L29.9119 31.9446L29.6969 32.1385L29.4609 32.3072L28.9845 32.6571C28.6641 32.8721 28.3606 33.1208 28.0233 33.3021L27.0031 33.8375C26.8345 33.926 26.6659 34.023 26.493 34.1031L25.9576 34.3181L25.1693 34.6384C24.9037 34.7529 24.6304 34.8486 24.3514 34.9251C24.0648 35.0052 23.7781 35.0937 23.5083 35.1612L22.6357 35.3172C21.4761 35.4828 20.2999 35.497 19.1366 35.3593C16.8482 35.0592 14.65 34.2755 12.6879 33.0604C12.6766 33.0534 12.6698 33.041 12.6698 33.0278Z" fill="#1051E9"/>
<path d="M30.1817 22.6005C30.1719 22.592 30.1575 22.5916 30.1473 22.5995C27.7889 24.4373 25.2626 26.0488 22.6019 27.4128C21.6366 27.906 20.6796 28.4414 19.7142 28.863C17.9942 29.6639 16.2475 30.4115 14.4741 31.1057C12.6861 31.796 10.8555 32.3705 8.99371 32.8257C8.16106 33.0431 7.31651 33.212 6.4643 33.3316C6.02137 33.3897 5.57425 33.4094 5.12793 33.3906C4.64373 33.3824 4.16619 33.2763 3.7241 33.0786C3.39904 32.924 3.12002 32.6872 2.91469 32.3915C2.71727 32.0914 2.59309 31.7492 2.55214 31.3924C2.51132 31.0593 2.52557 30.7217 2.5943 30.3933C2.66601 30.088 2.77355 29.7922 2.91469 29.5122C3.44884 28.4468 4.32245 27.5895 5.39773 27.0755C5.74342 26.9195 5.94999 26.9659 5.9795 27.0755C6.00901 27.1851 5.91205 27.417 5.77293 27.6994C5.63381 27.9819 5.43989 28.3234 5.22489 28.7281C5.11528 28.922 5.0141 29.1496 4.89185 29.3478L4.49136 29.997C4.27775 30.3026 4.14175 30.6557 4.09508 31.0256C4.08515 31.1678 4.10086 31.3106 4.14146 31.4472C4.16617 31.5363 4.2195 31.6148 4.29322 31.6706C4.5884 31.8573 4.93041 31.9567 5.27969 31.9573C5.76006 31.9785 6.24136 31.9545 6.71724 31.8856C7.21891 31.8224 7.72901 31.7254 8.2391 31.6116C8.7492 31.4978 9.25508 31.3207 9.76097 31.1605C10.7727 30.8317 11.7845 30.4691 12.7963 30.0897C15.2806 29.1517 17.7049 28.062 20.0557 26.8268C21.371 26.1734 22.661 25.5157 23.9046 24.7695C25.1482 24.0234 26.3666 23.2224 27.5385 22.3624C28.9855 21.3028 30.3719 20.1628 31.691 18.9477C32.6859 18.0118 33.6555 17.059 34.5914 16.0557C35.0509 15.5583 35.4977 15.0397 35.9657 14.5254C36.4336 14.0111 36.872 13.5136 37.2683 12.9909C37.5746 12.5981 37.8388 12.1742 38.0567 11.7262C38.1072 11.6166 38.162 11.5112 38.2 11.4016L38.2632 11.2414C38.2779 11.2027 38.2905 11.1633 38.3012 11.1234C38.3396 10.9975 38.3609 10.8671 38.3644 10.7355C38.3623 10.6092 38.2975 10.4923 38.1916 10.4235C38.0855 10.362 37.9643 10.3313 37.8416 10.335C37.6999 10.3421 37.5589 10.3604 37.4201 10.3898C37.1983 10.4291 36.9818 10.4942 36.7751 10.5837C36.5027 10.6982 36.2411 10.8361 35.993 10.9958C35.7933 11.1244 35.5962 11.2579 35.3844 11.3654C34.9899 11.5657 34.5844 11.7438 34.1698 11.899C33.9986 11.9393 33.8228 11.9563 33.647 11.9496C33.4827 11.9208 33.3206 11.88 33.1622 11.8274C33.0231 11.781 32.8671 11.7641 32.7702 11.7178C32.6016 11.6419 32.6184 11.448 32.7322 11.0559C32.928 10.5396 33.2803 10.0974 33.7398 9.7912C34.6043 9.13307 35.618 8.69864 36.6908 8.52649C37.0027 8.44447 37.3217 8.39224 37.6435 8.37051C38.091 8.33528 38.5411 8.38974 38.9672 8.53071C39.3765 8.66984 39.7357 8.92643 40.0001 9.26845C40.2581 9.61903 40.397 10.0431 40.3964 10.4784C40.371 10.9356 40.2758 11.3863 40.1139 11.8147C40.0871 11.9024 40.0547 11.9883 40.0169 12.0719L39.9284 12.2785C39.8652 12.4176 39.7977 12.544 39.7303 12.6789C39.4662 13.1821 39.1572 13.6604 38.807 14.1081C38.1494 14.9512 37.4327 15.7016 36.8046 16.4056C34.7905 18.6563 32.5862 20.7292 30.2162 22.6014C30.206 22.6095 30.1915 22.6091 30.1817 22.6005Z" fill="#1051E9"/>
<path d="M16.6047 19.1515C16.599 19.1436 16.5881 19.1414 16.5797 19.1465C16.4078 19.2514 16.2265 19.3401 16.0381 19.4114C15.8502 19.4648 15.6585 19.5043 15.4648 19.5294C15.1096 19.5607 14.7517 19.5307 14.4066 19.4409L14.0399 19.3482C13.915 19.3044 13.7938 19.2509 13.6773 19.188C13.2589 18.9477 12.9337 18.5734 12.7541 18.1256C12.6699 17.9091 12.6256 17.6792 12.6234 17.4469C12.6234 17.3331 12.6234 17.2234 12.6614 17.1181L12.7457 16.8061C12.8651 16.4627 13.053 16.1472 13.2979 15.8786C13.5827 15.5302 13.993 15.3077 14.4404 15.2589C14.5753 15.2589 14.5795 15.3643 14.5247 15.5245C14.5024 15.5907 14.475 15.6549 14.443 15.7166C14.333 15.9284 14.1313 16.0755 13.996 16.272C13.9757 16.3016 13.9565 16.3321 13.9387 16.3634C13.8655 16.4877 13.8128 16.6229 13.7827 16.7639C13.7525 16.8895 13.7383 17.0184 13.7406 17.1476C13.749 17.2683 13.749 17.3894 13.7406 17.5101C13.7406 17.8179 14.0357 18.0202 14.3603 18.1425C14.7348 18.302 15.1548 18.3185 15.5407 18.1888C15.7515 18.0955 15.9272 17.9375 16.0423 17.7378C16.2381 17.4052 16.2826 17.0049 16.1646 16.6375C16.0839 16.4185 15.9565 16.2207 15.792 16.0574C15.7002 15.9663 15.5856 15.902 15.4859 15.8196C15.3719 15.7181 15.3094 15.5748 15.308 15.4277C15.307 15.3054 15.3464 15.1846 15.372 15.065C15.4226 14.8753 15.6123 14.7783 15.9285 14.8036C16.4206 14.8881 16.8679 15.1416 17.1932 15.5203C17.3703 15.7217 17.5127 15.9511 17.6148 16.199C17.6485 16.3297 17.678 16.4646 17.6991 16.5995C17.7112 16.6773 17.7094 16.7579 17.7097 16.8396C17.7101 16.9607 17.7214 17.0821 17.7118 17.2028C17.65 17.9764 17.2577 18.6894 16.6309 19.1557C16.6225 19.1619 16.6107 19.16 16.6047 19.1515Z" fill="#1051E9"/>
</svg>
