<svg width="41" height="39" viewBox="0 0 41 39" fill="none" xmlns="http://www.w3.org/2000/svg">
<rect width="41" height="39" fill="white"/>
<path d="M16.5336 15.4559C15.7699 16.6374 15.0142 17.8265 14.2826 19.0347C14.0133 19.4744 13.7962 19.9371 13.5269 20.3729L12.104 22.6671C11.6538 23.4318 11.2197 24.2194 10.7896 25.0185C10.4117 25.7297 10.0781 26.4676 9.71232 27.1903C9.4944 27.666 9.2405 28.126 8.95262 28.5668C8.65538 29.006 8.31775 29.4193 7.94369 29.8018C7.70654 30.035 7.56987 29.8897 7.54173 29.5418C7.49602 29.0568 7.55905 28.5681 7.72664 28.1079C7.82713 27.8785 7.89948 27.6338 8.01203 27.4082L8.3336 26.7238L8.96467 25.3282C9.37805 24.3571 9.85878 23.4132 10.4037 22.5026C10.7413 21.9444 11.0709 21.3556 11.3684 20.805C11.6659 20.2544 11.9673 19.6579 12.2849 19.0882C12.9843 17.8494 13.7038 16.6221 14.4354 15.3947L15.802 13.1388C16.5055 11.9918 17.2451 10.8906 17.9244 9.75882C18.1897 9.31912 18.4309 8.87177 18.668 8.42059C18.9052 7.96941 19.1383 7.52206 19.4157 7.09382C19.5362 6.90647 19.6367 6.71147 19.7654 6.52412C19.9221 6.26593 20.1295 6.03878 20.3763 5.855C20.5481 5.75087 20.7549 5.7126 20.9552 5.74794C21.0497 5.75309 21.1437 5.76459 21.2365 5.78235C21.3772 5.82059 21.4496 5.94294 21.4697 6.13412C21.4885 6.38346 21.4458 6.63353 21.3451 6.86441C21.0238 7.72992 20.6397 8.57313 20.1955 9.38794C19.7332 10.2215 19.2468 11.0321 18.7685 11.8503C18.049 13.0585 17.3255 14.2744 16.5738 15.475L16.5336 15.4559Z" fill="#81A4F5"/>
<path d="M20.919 18.7825L18.7846 22.1434C18.5273 22.5525 18.3143 22.9845 18.053 23.3937C17.1406 24.8695 16.1799 26.2995 15.2393 27.7372C14.8373 28.3719 14.4595 29.0448 14.0696 29.6872C13.6165 30.541 13.0909 31.3581 12.4979 32.1304C12.301 32.3675 12.0517 32.1954 11.903 31.8284C11.7154 31.3639 11.7255 30.8482 11.9312 30.3907C12.1442 29.9472 12.3653 29.5075 12.5904 29.0678C12.7069 28.8498 12.8195 28.6281 12.9401 28.414L13.342 27.7831C13.8646 26.947 14.4166 26.1224 14.9981 25.3093C15.3426 24.8173 15.6567 24.3066 15.9387 23.7798L16.3407 22.9807C16.4854 22.7131 16.6341 22.4454 16.7909 22.1816C17.4742 21.0345 18.1615 19.8875 18.865 18.7404L20.1553 16.6222C20.7984 15.5478 21.4375 14.4695 22.0565 13.3913C22.2937 12.9707 22.5067 12.5425 22.7238 12.1104C22.9317 11.6753 23.1625 11.2503 23.4152 10.8372C23.5277 10.6575 23.6242 10.474 23.7448 10.2981C24.199 9.64808 24.4522 9.51043 24.9024 9.59837C25.0059 9.61023 25.1082 9.6307 25.2079 9.65955C25.5214 9.7666 25.5697 10.1757 25.3566 10.7148C25.0493 11.5174 24.6909 12.3014 24.2834 13.0625C23.8814 13.8272 23.4232 14.5919 22.9811 15.3566C22.3299 16.5037 21.6305 17.6507 20.9712 18.7978L20.919 18.7825Z" fill="#81A4F5"/>
<path d="M27.1011 19.826L25.2119 23.0186C24.9788 23.401 24.81 23.8216 24.5527 24.2039C23.7086 25.5727 22.7439 26.8345 21.8877 28.1689C21.4858 28.7577 21.1682 29.3733 20.8466 29.9813C20.4484 30.7794 19.9847 31.5465 19.4599 32.2754C19.287 32.501 19.0579 32.3672 18.9293 32.0422C18.7431 31.6173 18.7189 31.1439 18.8609 30.7039C19.0217 30.2719 19.1785 29.8398 19.3634 29.4192C19.5483 28.9986 19.7654 28.5972 19.9945 28.1957C20.4308 27.3866 20.9125 26.6003 21.4375 25.8404C22.0646 24.9189 22.555 23.898 23.1057 22.9307C23.7166 21.8677 24.3209 20.7959 24.9185 19.7151L26.0199 17.7116L27.696 14.6527C28.1221 13.8651 28.4558 13.043 28.8658 12.2516C28.9582 12.0757 29.0466 11.9074 29.1511 11.7392C29.5531 11.1313 29.8184 11.0051 30.2887 11.1045C30.3946 11.1211 30.4993 11.1441 30.6022 11.1733C30.9318 11.288 31.0042 11.6857 30.8675 12.198C30.6467 12.9641 30.3617 13.7121 30.0154 14.4348C29.6817 15.1689 29.3401 15.903 28.9341 16.6142L27.1494 19.826H27.1011Z" fill="#81A4F5"/>
<path d="M28.2588 25.4964L26.8841 27.3852C26.7153 27.6146 26.5907 27.8669 26.4218 28.0925C25.8309 28.9031 25.2159 29.7099 24.6934 30.5472C24.4574 30.9189 24.2414 31.3018 24.0462 31.6943C23.8334 32.2117 23.564 32.7064 23.2423 33.1702C23.1298 33.3078 22.9047 33.1702 22.7359 32.9408C22.5391 32.6885 22.4753 32.3642 22.563 32.0614C23.0227 30.9874 23.5993 29.9622 24.2834 29.0025C24.6854 28.4328 25.0069 27.7675 25.3767 27.1558C25.7787 26.4828 26.2289 25.8328 26.6751 25.1828L27.479 23.9822C27.8809 23.3743 28.3191 22.7778 28.6849 22.1508C28.9703 21.6652 29.1753 21.1452 29.4205 20.6481C29.4767 20.5372 29.5169 20.4187 29.5772 20.3116C29.8063 19.9293 29.9792 19.8452 30.3811 19.9714C30.4755 19.9949 30.5682 20.0243 30.6585 20.0593C30.9567 20.1852 31.0996 20.5108 30.9841 20.8011C30.8351 21.2921 30.64 21.7694 30.4012 22.2272C30.156 22.6822 29.8747 23.1258 29.5973 23.5655C29.1712 24.2231 28.713 24.8578 28.2749 25.5078L28.2588 25.4964Z" fill="#81A4F5"/>
<path d="M20.1191 12.3129L24.1749 14.2897C24.6653 14.5268 25.1798 14.7218 25.6662 14.9665L28.2467 16.2741C28.6487 16.4921 29.119 16.7177 29.5411 16.9509L30.8072 17.6735C31.5495 18.1069 32.2999 18.5007 33.0582 18.855C33.5406 19.0844 34.043 19.268 34.5214 19.5012L35.9805 20.2085C36.2819 20.3577 36.1855 20.5259 35.8358 20.6559C35.3203 20.8325 34.7625 20.8656 34.2279 20.7515C33.9419 20.6882 33.6601 20.609 33.3838 20.5144C33.1105 20.415 32.8452 20.3041 32.5799 20.1932C32.0493 19.9715 31.5348 19.7268 31.0323 19.4782C30.0315 18.9735 29.0667 18.4803 28.1141 17.9488C26.9524 17.2988 25.63 16.8018 24.3879 16.2397L20.2638 14.3318C19.4197 13.9494 18.5729 13.5747 17.7234 13.2077C16.4371 12.6456 15.1509 12.0606 13.8365 11.6018C13.326 11.4144 12.8155 11.2653 12.2929 11.1162L11.5171 10.9059L10.7534 10.6688C10.5283 10.5962 10.3032 10.5388 10.0781 10.4547C9.77451 10.3657 9.49003 10.2258 9.23802 10.0418C9.09104 9.90432 9.00113 9.72104 8.98478 9.5256C8.96557 9.4361 8.95347 9.34535 8.94861 9.25413C8.94861 9.11266 9.06116 9.02089 9.2541 8.95971C9.51434 8.8834 9.79005 8.86767 10.058 8.91383C11.062 9.02571 12.0534 9.22277 13.0205 9.50266C13.9892 9.79324 14.9579 10.1335 15.9186 10.4968C17.3415 11.0397 18.7565 11.6209 20.1352 12.2594L20.1191 12.3129Z" fill="#81A4F5"/>
<path d="M16.2362 15.8077L20.3643 17.7462C20.8668 17.9833 21.3893 18.1745 21.8918 18.4115L27.1534 20.9465C27.9292 21.3289 28.7372 21.6424 29.517 21.9904C30.55 22.3906 31.5509 22.8622 32.5116 23.4012C32.805 23.5848 32.6482 23.818 32.2624 23.9633C31.7431 24.143 31.1738 24.143 30.6545 23.9633L29.0467 23.3745C28.7814 23.2751 28.5161 23.1757 28.2428 23.0648L27.471 22.7168C26.442 22.2504 25.425 21.7457 24.4241 21.218C23.2182 20.5948 21.8918 20.1207 20.6256 19.5701C19.2348 18.9583 17.844 18.3427 16.4573 17.7118L15.1951 17.1498C14.769 16.9701 14.3389 16.7942 13.9048 16.626C12.5864 16.1136 11.2519 15.6012 9.9053 15.1807C9.38276 15.0201 8.85217 14.8862 8.3256 14.7639C7.79903 14.6415 7.26844 14.5307 6.74589 14.3815C6.51677 14.3242 6.28766 14.2783 6.05854 14.2171C5.21442 13.9762 4.98128 13.8118 4.88481 13.3951C4.85741 13.3023 4.83726 13.2077 4.82452 13.1121C4.8004 12.8139 5.22648 12.638 5.91785 12.6954C7.96383 12.8215 9.93746 13.4601 11.9071 14.1139C13.3662 14.6186 14.8173 15.1654 16.2523 15.781L16.2362 15.8077Z" fill="#81A4F5"/>
<path d="M15.6292 22.4186C16.7989 23.0227 17.9606 23.6268 19.1343 24.208C19.5644 24.4221 20.0146 24.5904 20.4407 24.7968L22.6917 25.9018C23.4474 26.2612 24.2191 26.6054 24.9989 26.9418C25.6903 27.2362 26.4058 27.4962 27.1092 27.7639C28.0326 28.0766 28.9137 28.4925 29.734 29.0027C29.9873 29.1748 29.8466 29.3468 29.5089 29.4501C29.0538 29.5783 28.5693 29.5783 28.1141 29.4501L26.7233 29.0601L25.3486 28.5745C24.4322 28.2418 23.5157 27.8862 22.6113 27.4657C22.0686 27.2095 21.4979 26.9992 20.9271 26.7583C20.3563 26.5174 19.7935 26.2957 19.2469 26.0433C18.041 25.4851 16.8351 24.8962 15.6574 24.3151C14.9218 23.9595 14.1942 23.5962 13.4586 23.2521C12.3412 22.7283 11.2077 22.1968 10.0862 21.738C9.2059 21.3862 8.29746 21.1454 7.40109 20.8739C7.20011 20.8165 6.99913 20.7592 6.81423 20.6865C6.09472 20.4074 5.9058 20.2201 5.8857 19.8033C5.87778 19.7091 5.87778 19.6145 5.8857 19.5204C5.91384 19.226 6.28766 19.096 6.89462 19.1648C7.33655 19.2132 7.77535 19.2847 8.20903 19.3789C8.63913 19.4821 9.07325 19.5968 9.49933 19.7268C10.3673 19.9828 11.2161 20.2945 12.0397 20.6598C13.2697 21.1912 14.4515 21.7877 15.6574 22.3651L15.6292 22.4186Z" fill="#81A4F5"/>
<path d="M16.9999 27.2552C17.7556 27.6031 18.5193 27.9396 19.271 28.3066C19.5443 28.4366 19.8337 28.5322 20.107 28.6699L22.969 30.1496C23.3951 30.3637 23.8292 30.5549 24.2673 30.7346C24.8348 30.9393 25.3745 31.2075 25.8752 31.5337C26.0279 31.6484 25.8752 31.8587 25.63 32.0155C25.3499 32.2016 24.9945 32.2525 24.6693 32.1531C23.5216 31.7112 22.4046 31.2004 21.325 30.6237C20.6518 30.2971 19.9577 30.0111 19.2468 29.7672C18.4751 29.4614 17.7154 29.1249 16.9476 28.7999C16.4733 28.6011 16.003 28.4175 15.5247 28.2111C14.8012 27.9243 14.0817 27.6184 13.3461 27.3814C12.7753 27.194 12.1804 27.0908 11.6096 26.9531C11.481 26.9225 11.3523 26.9034 11.2076 26.8652C10.7373 26.7237 10.6288 26.5746 10.677 26.1693C10.6816 26.077 10.6923 25.985 10.7092 25.894C10.787 25.586 11.1057 25.3906 11.4327 25.4505C11.9858 25.5049 12.533 25.6034 13.0687 25.7449C13.6073 25.8978 14.1379 26.0814 14.6766 26.2764C15.4805 26.5708 16.2362 26.8996 17.016 27.2208L16.9999 27.2552Z" fill="#81A4F5"/>
<path d="M9.15763 17.8304C9.63998 17.0963 10.1183 16.3622 10.5806 15.6204C10.7494 15.349 10.882 15.0584 11.0509 14.7907C11.6417 13.8348 12.2567 12.879 12.8195 11.9193C13.0625 11.4863 13.2799 11.0408 13.4707 10.5848C13.6804 9.99072 13.9497 9.41712 14.2746 8.8719C14.5037 8.53543 15.3157 9.37279 15.0584 10.0763C14.5883 11.306 13.9805 12.484 13.2456 13.5901C12.8074 14.2554 12.4417 14.9972 12.0397 15.6969C11.5855 16.4616 11.1112 17.2263 10.6368 17.9604L9.76459 19.3446C9.33047 20.0481 8.87626 20.7401 8.48234 21.4551C8.17685 22.0096 7.94773 22.6022 7.67842 23.1643C7.62214 23.2904 7.57793 23.4166 7.51361 23.5466C7.28047 24.0054 7.11165 24.1048 6.73783 24.036C6.65111 24.0226 6.56524 24.0048 6.48057 23.9825C6.20322 23.8984 6.09871 23.6001 6.21126 23.2407C6.59414 22.1393 7.10087 21.0805 7.72263 20.0825C8.16881 19.3178 8.64714 18.5722 9.1094 17.819L9.15763 17.8304Z" fill="#81A4F5"/>
</svg>
