<svg width="43" height="43" viewBox="0 0 43 43" fill="none" xmlns="http://www.w3.org/2000/svg">
<rect width="42.5735" height="42.5735" rx="5" fill="#DBEAFE"/>
<path d="M34.4596 16.4241C34.474 16.4422 34.4981 16.4495 34.5201 16.4424C34.7701 16.3625 35.0129 16.2787 35.2557 16.1911L35.3162 16.1701C35.3397 16.1619 35.3644 16.1577 35.3893 16.1577H35.4352H35.5186C35.5985 16.1487 35.6664 16.1039 35.7072 16.0406C35.7626 15.9546 35.7507 15.8325 35.6773 15.7612L35.6188 15.6944C35.5849 15.6552 35.5542 15.6133 35.527 15.5692C35.4994 15.5214 35.4687 15.4754 35.4352 15.4315L35.2807 15.2437C35.1806 15.1126 35.0733 14.9872 34.9593 14.868C34.7298 14.6259 34.5086 14.3546 34.254 14.1084C33.731 13.5998 33.1731 13.1284 32.5844 12.6976C32.0481 12.3146 31.4907 11.9621 30.9149 11.6416C30.1712 11.1951 29.4869 10.6566 28.878 10.0388C28.6944 9.83432 28.8238 9.71745 29.1326 9.65902C29.5563 9.57243 29.994 9.58098 30.414 9.68406L31.6662 10.0722C32.0686 10.2241 32.4629 10.3968 32.8474 10.5898C33.6608 10.9735 34.4282 11.4481 35.1346 12.0047C35.552 12.3595 36.0487 12.66 36.4995 13.044C36.7291 13.2235 36.9545 13.428 37.1757 13.6325L37.2591 13.7118L37.3593 13.8162L37.5555 14.0291C37.6946 14.1739 37.823 14.3288 37.9395 14.4924C38.223 14.8602 38.4174 15.2888 38.5071 15.7445C38.5837 16.189 38.5225 16.6463 38.3318 17.0551C38.1267 17.4571 37.8292 17.8047 37.4637 18.0694C37.2809 18.2045 37.0884 18.3259 36.8877 18.4325L36.6039 18.5828L36.391 18.6746C35.7109 18.9903 35.0143 19.269 34.304 19.5094C33.2564 19.8808 32.2171 20.1813 31.2112 20.6071C30.4609 20.9304 29.7294 21.2955 29.0199 21.7006C28.8655 21.7841 28.7194 21.8801 28.5608 21.9511C28.5543 21.9543 28.5478 21.9576 28.5413 21.9608C28.4191 22.0204 28.2831 22.0502 28.1476 22.0387C28.0371 22.044 27.9263 22.0356 27.8179 22.0137C27.6208 21.9706 27.4408 21.8704 27.3003 21.7257C27.2228 21.6646 27.149 21.5991 27.0791 21.5295C26.8829 21.3125 26.9789 20.9201 27.3045 20.4067C27.4193 20.2308 27.56 20.0732 27.7219 19.9393L28.1852 19.5219C28.5024 19.2631 28.8321 19.0127 29.1702 18.7831C29.5083 18.5535 29.8464 18.324 30.2011 18.1278C30.5559 17.9316 30.9274 17.7981 31.2863 17.6436C32.3536 17.2027 33.3924 16.8187 34.3947 16.4074C34.4177 16.398 34.4441 16.4048 34.4596 16.4241Z" fill="#1051E9"/>
<path d="M5.93274 28.9077C5.94358 28.8835 5.93769 28.8552 5.91813 28.8374C5.69951 28.6386 5.48107 28.4393 5.26641 28.2286L4.77389 27.7486C4.59072 27.5609 4.42321 27.3585 4.27303 27.1434C3.68092 26.3336 3.59072 25.2609 4.03929 24.3636C4.21055 24.0485 4.41785 23.7544 4.65702 23.4871C4.79476 23.3661 4.93667 23.2283 5.07441 23.124C5.21215 23.0196 5.33319 22.9403 5.46258 22.8527C5.59197 22.765 5.71301 22.6816 5.80067 22.644L6.08449 22.4937C6.27231 22.3936 6.46431 22.3101 6.65631 22.2266C6.84185 22.137 7.03451 22.063 7.2323 22.0054C7.42848 21.9386 7.62047 21.876 7.81247 21.8259C8.58464 21.6005 9.34428 21.4294 10.0872 21.2583C10.7467 21.1038 11.3853 20.916 12.0072 20.7157C12.8211 20.4986 13.6183 20.2983 14.4531 20.1355C14.7161 20.0938 14.762 20.2607 14.6451 20.5529C14.4782 20.9708 14.1977 21.3337 13.8354 21.6005C13.4555 21.851 13.0674 22.0889 12.6834 22.3101C12.2959 22.5052 11.8989 22.6807 11.4938 22.836C10.7008 23.1532 9.9161 23.4287 9.13559 23.6708C8.90387 23.7445 8.67787 23.8352 8.45942 23.9421C8.24655 24.0548 8.04203 24.1716 7.82917 24.2927C7.6163 24.4137 7.41178 24.5473 7.24065 24.6808L7.1697 24.7309L7.12796 24.7643L7.03613 24.8311C6.93057 24.9033 6.8122 24.9593 6.71916 25.0471C6.69128 25.0734 6.66605 25.1022 6.64378 25.1331C6.50855 25.3209 6.52411 25.5905 6.66466 25.7744C6.69823 25.826 6.73591 25.8749 6.77735 25.9205L6.86083 26.004L7.01944 26.1375C7.54952 26.5549 8.09212 27.014 8.65559 27.4398C9.51541 28.0742 10.3961 28.7253 11.3352 29.2846C12.0448 29.7437 12.8128 30.1194 13.5307 30.5785C13.6893 30.687 13.8562 30.7705 14.0065 30.8916C14.0135 30.8977 14.0204 30.9037 14.0273 30.9097C14.1372 31.0044 14.2382 31.1103 14.307 31.238C14.3652 31.3399 14.4087 31.4495 14.4364 31.5636C14.477 31.7639 14.4567 31.9718 14.378 32.1604C14.3478 32.2539 14.313 32.3459 14.2736 32.4359C14.1401 32.6988 13.7394 32.7406 13.1759 32.6822C12.9816 32.6656 12.7913 32.6177 12.6124 32.5402L12.0782 32.3566C11.7192 32.2314 11.3644 32.102 11.0097 31.9684C10.6549 31.8349 10.2918 31.6929 9.94115 31.551C9.59054 31.4091 9.26498 31.1754 8.92689 30.975C8.42186 30.6787 7.91682 30.3615 7.41178 30.0276C6.90656 29.7043 6.4187 29.3547 5.9502 28.9802C5.92848 28.9629 5.92133 28.933 5.93274 28.9077Z" fill="#1051E9"/>
<path d="M15.4567 24.2619C15.4513 24.2826 15.4654 24.3033 15.4866 24.3058L19.4367 24.781C19.9209 24.8352 20.4092 24.8227 20.8934 24.8895L23.4478 25.2318C24.2825 25.3486 25.1549 25.4572 26.0022 25.6116C26.7577 25.741 27.5215 25.8078 28.2728 25.8954C28.7569 25.9413 29.2495 25.9914 29.7336 26.0665C29.9825 26.0949 30.2293 26.1395 30.4724 26.2001L30.8355 26.3044C30.9691 26.3501 31.1001 26.4031 31.2279 26.4631C31.5576 26.6175 31.3573 26.8512 31.0317 27.0766C30.6572 27.3723 30.198 27.5405 29.7211 27.5566C28.7569 27.5566 27.7803 27.5566 26.7994 27.5065C26.3069 27.5065 25.8227 27.4564 25.3302 27.423C24.8369 27.3776 24.3464 27.3052 23.861 27.206C22.6581 27.048 21.447 26.9616 20.2339 26.9472L16.2353 26.6509L13.7769 26.4881C12.5248 26.4046 11.2726 26.2961 10.0496 26.3003C9.08966 26.3003 8.14219 26.4464 7.19472 26.5382C6.98603 26.5382 6.77733 26.5883 6.57281 26.5883C5.79647 26.5883 5.55022 26.4338 5.37909 25.8453C5.33453 25.7085 5.29829 25.5691 5.27057 25.4279C5.19126 24.9813 5.51265 24.5932 6.10534 24.4471C6.96384 24.2117 7.84569 24.0717 8.73488 24.0297C9.62809 23.9713 10.5338 23.9713 11.4354 23.9921C12.7655 24.0128 14.0997 24.0988 15.4259 24.218C15.4476 24.2199 15.4623 24.2409 15.4567 24.2619Z" fill="#1051E9"/>
<path d="M26.1754 16.0323C26.1741 16.0225 26.1668 16.0145 26.1571 16.0124C24.8644 15.7381 23.5676 15.4681 22.2666 15.2312C21.7908 15.1394 21.3066 15.1185 20.8308 15.0267L18.3264 14.5425C17.4917 14.3797 16.6569 14.2503 15.8221 14.075C15.0803 13.9433 14.3322 13.85 13.5808 13.7954C13.1008 13.7495 12.6249 13.7369 12.1491 13.6994L11.4479 13.6409L11.0973 13.595L10.7884 13.5658C10.538 13.5324 10.4587 13.2611 10.6799 12.9314C11.0064 12.5091 11.4927 12.2403 12.0239 12.1884C13.024 12.1189 14.0271 12.1008 15.0291 12.1342C15.5258 12.155 16.0266 12.1843 16.5233 12.2427C17.021 12.3024 17.5145 12.393 18.0009 12.514C19.1737 12.7853 20.4217 12.8145 21.6322 12.9773C22.9636 13.1609 24.2867 13.3696 25.614 13.5825L28.0599 13.979C29.3121 14.1835 30.5267 14.4256 31.7621 14.5675C32.718 14.6802 33.6779 14.6552 34.6379 14.7011C34.8508 14.7011 35.0553 14.7011 35.2724 14.7387C36.0529 14.8514 36.2741 15.0517 36.345 15.6569C36.3685 15.795 36.3839 15.9344 36.391 16.0743C36.391 16.5293 36.0153 16.8506 35.4268 16.9091C34.992 16.9647 34.5545 16.9954 34.1162 17.0009C33.6988 17.0009 33.2397 17.0009 32.7973 16.9592C31.9124 16.9007 31.0275 16.7964 30.1343 16.6837C28.821 16.5133 27.5035 16.2932 26.1943 16.0524C26.1843 16.0505 26.1766 16.0424 26.1754 16.0323Z" fill="#1051E9"/>
</svg>
